<?xml version="1.0" encoding="utf-8"?>
<!-- Generator: Adobe Illustrator 25.2.1, SVG Export Plug-In . SVG Version: 6.00 Build 0)  -->
<svg version="1.1" xmlns="http://www.w3.org/2000/svg" xmlns:xlink="http://www.w3.org/1999/xlink" x="0px" y="0px"
	 viewBox="0 0 1024 1093.94" style="enable-background:new 0 0 1024 1093.94;" xml:space="preserve">
<style type="text/css">
	.st0{fill:#FFFFFF;stroke:#231F20;stroke-miterlimit:10;}
	.st1{fill:#1D1F26;}
	.st2{fill:#DBEADB;}
	.st3{fill:#00A3EB;}
	.st4{fill:none;stroke:#000000;stroke-width:3.8361;stroke-linecap:round;stroke-linejoin:round;stroke-miterlimit:10;}
	.st5{fill:#FFFFFF;}
	.st6{fill:#E50312;}
	.st7{fill:#FAEA29;}
	.st8{fill:#90E0FC;}
	.st9{fill:none;stroke:#231F20;stroke-width:1.9515;stroke-linecap:round;stroke-linejoin:round;stroke-miterlimit:10;}
	.st10{fill:none;stroke:#231F20;stroke-width:1.9515;stroke-miterlimit:10;}
	.st11{fill:#F9D500;}
</style>
<g id="Layer_1">
	<rect x="-0.8" class="st0" width="1024" height="1093.94"/>
	<rect y="1023.94" class="st1" width="1024" height="70"/>
	<g>
		<g>
			<g>
				<path class="st2" d="M278.12,1043.38h5.2c4.09,0,7.46,1.08,10.11,3.2c2.67,2.14,4,5.19,4,9.15c0,4.08-1.32,7.2-3.96,9.36
					c-2.65,2.17-6.06,3.24-10.24,3.24h-5.1V1043.38z M281.25,1065.5h1.1c1.62,0,3.16-0.16,4.6-0.48c1.45-0.33,2.71-0.86,3.79-1.62
					c1.07-0.78,1.94-1.77,2.58-2.99c0.64-1.22,0.97-2.74,0.97-4.55c0-1.79-0.32-3.32-0.95-4.59c-0.63-1.28-1.51-2.26-2.66-2.97
					c-1.12-0.72-2.38-1.25-3.75-1.58c-1.37-0.35-2.9-0.5-4.59-0.5h-1.1V1065.5z"/>
				<path class="st2" d="M302.03,1061.1c0.04,1.38,0.49,2.59,1.33,3.61c0.87,1.02,1.99,1.51,3.36,1.51c1.09,0,1.98-0.25,2.69-0.75
					c0.7-0.51,1.36-1.25,1.98-2.26l2.54,1.43c-0.73,1.32-1.75,2.35-3.03,3.12c-1.28,0.74-2.68,1.11-4.21,1.11
					c-2.34,0-4.2-0.76-5.6-2.31c-1.38-1.59-2.07-3.51-2.07-5.83c0-2.43,0.66-4.45,1.98-6.01c1.29-1.56,3.17-2.31,5.64-2.31
					c2.41,0,4.21,0.75,5.44,2.31c1.24,1.54,1.87,3.52,1.87,5.93v0.46H302.03z M310.93,1058.85c-0.19-1.2-0.63-2.15-1.39-2.83
					c-0.75-0.7-1.72-1.05-2.92-1.05c-0.57,0-1.12,0.08-1.62,0.27c-0.5,0.2-0.94,0.48-1.33,0.82c-0.38,0.36-0.71,0.77-0.98,1.25
					c-0.25,0.49-0.42,0.99-0.5,1.55H310.93z"/>
				<path class="st2" d="M322.77,1056.4c-0.45-0.92-1.11-1.37-2-1.37c-0.42,0-0.8,0.15-1.13,0.45c-0.34,0.3-0.5,0.67-0.5,1.08
					c0,0.4,0.13,0.75,0.38,1.02c0.25,0.28,0.6,0.53,1.05,0.78c0.29,0.13,0.51,0.25,0.67,0.3c0.15,0.09,0.4,0.21,0.77,0.37
					c0.17,0.07,0.33,0.16,0.46,0.2c0.13,0.04,0.23,0.08,0.3,0.12c1.1,0.51,1.99,1.09,2.64,1.76c0.64,0.65,0.97,1.55,0.97,2.64
					c0,1.46-0.54,2.69-1.6,3.67c-1.04,0.98-2.31,1.46-3.77,1.46c-0.61,0-1.19-0.08-1.74-0.25c-0.55-0.15-1.07-0.39-1.56-0.69
					c-0.48-0.3-0.89-0.66-1.26-1.09c-0.37-0.44-0.65-0.92-0.85-1.43l2.57-1.15c0.73,1.32,1.68,1.97,2.84,1.97
					c0.47,0,0.9-0.12,1.29-0.38c0.41-0.25,0.71-0.57,0.89-0.95c0.19-0.4,0.23-0.81,0.12-1.28c-0.11-0.43-0.45-0.87-1.03-1.27
					l-2.95-1.55c-0.5-0.26-0.95-0.53-1.33-0.8c-0.38-0.27-0.69-0.55-0.93-0.84c-0.25-0.3-0.43-0.63-0.56-0.98
					c-0.12-0.38-0.18-0.79-0.18-1.28c0-1.26,0.44-2.32,1.34-3.19c0.89-0.88,1.97-1.31,3.26-1.31c1.96,0,3.38,0.88,4.27,2.71
					L322.77,1056.4z"/>
				<path class="st2" d="M333.54,1045.77c0,0.55-0.2,1.03-0.6,1.42c-0.4,0.4-0.89,0.6-1.46,0.6c-0.58,0-1.07-0.19-1.47-0.6
					c-0.4-0.39-0.6-0.87-0.6-1.42c0-0.58,0.2-1.07,0.6-1.48c0.4-0.41,0.89-0.6,1.47-0.6c0.57,0,1.06,0.19,1.46,0.6
					C333.34,1044.7,333.54,1045.18,333.54,1045.77z M332.98,1068.34h-3.01v-15.49h3.01V1068.34z"/>
				<path class="st2" d="M352.39,1068.06c0,2.9-0.55,5.17-1.67,6.79c-1.12,1.58-3.1,2.37-5.94,2.37c-2.2,0-4-0.63-5.4-1.88
					c-1.38-1.25-2.09-2.96-2.13-5.13h2.99c0,1.39,0.44,2.46,1.28,3.24c0.87,0.75,2,1.13,3.4,1.13c1.71,0,2.88-0.49,3.52-1.5
					c0.63-1,0.94-2.38,0.94-4.2v-2.95h-0.07c-0.62,0.95-1.39,1.67-2.31,2.18c-0.92,0.52-1.91,0.77-2.98,0.77
					c-2.32,0-4.15-0.8-5.48-2.41c-1.33-1.62-1.98-3.59-1.98-5.96c0-2.24,0.67-4.12,2.02-5.69c1.36-1.62,3.12-2.41,5.31-2.41
					c2.28,0,4.11,1.04,5.42,3.08h0.07v-2.63h3V1068.06z M344.49,1066.22c1.57,0,2.8-0.54,3.69-1.61c0.91-1.11,1.37-2.45,1.37-4.01
					c0-1.55-0.46-2.86-1.37-3.95c-0.88-1.07-2.12-1.62-3.69-1.62c-1.5,0-2.7,0.55-3.61,1.67c-0.89,1.08-1.34,2.38-1.34,3.9
					c0,1.56,0.45,2.88,1.34,3.97C341.8,1065.69,343,1066.22,344.49,1066.22z"/>
				<path class="st2" d="M359.29,1054.93h0.07c0.43-0.83,1.09-1.44,1.93-1.88c0.85-0.45,1.77-0.65,2.77-0.65
					c1.02,0,1.88,0.14,2.6,0.45c0.7,0.3,1.28,0.74,1.71,1.32c0.44,0.58,0.75,1.27,0.94,2.1c0.19,0.82,0.28,1.78,0.28,2.82v9.24h-3
					v-8.87c0-1.53-0.23-2.64-0.66-3.34c-0.45-0.73-1.37-1.1-2.77-1.1c-0.52,0-0.95,0.05-1.3,0.15c-0.36,0.09-0.67,0.23-0.94,0.42
					c-0.27,0.19-0.49,0.41-0.67,0.65c-0.17,0.25-0.35,0.51-0.5,0.81c-0.07,0.14-0.13,0.35-0.19,0.59c-0.05,0.24-0.1,0.49-0.14,0.73
					c-0.05,0.26-0.09,0.51-0.1,0.77c-0.02,0.26-0.03,0.46-0.03,0.61v1.45v7.12h-3v-15.49h3V1054.93z"/>
				<path class="st2" d="M383.14,1039.61h3v15.82h0.07c1.38-2.03,3.19-3.03,5.44-3.03c2.17,0,3.95,0.8,5.31,2.41
					c1.35,1.56,2.03,3.45,2.03,5.69c0,2.37-0.67,4.34-2,5.96c-1.34,1.61-3.17,2.41-5.47,2.41c-1.06,0-2.06-0.25-2.99-0.77
					c-0.92-0.51-1.69-1.23-2.31-2.18h-0.07v2.42h-3V1039.61z M390.91,1066.22c1.58,0,2.81-0.54,3.7-1.61
					c0.91-1.11,1.36-2.45,1.36-4.01c0-1.55-0.45-2.86-1.36-3.95c-0.89-1.07-2.12-1.62-3.7-1.62c-1.49,0-2.7,0.55-3.61,1.67
					c-0.89,1.08-1.34,2.38-1.34,3.9c0,1.56,0.45,2.88,1.34,3.97C388.21,1065.69,389.42,1066.22,390.91,1066.22z"/>
				<path class="st2" d="M399.41,1052.85h3.5l5.27,9.83l4.91-9.83h3.37l-12.65,24.37h-3.4l6.15-11.53L399.41,1052.85z"/>
				<path class="st2" d="M431.59,1062.08l-2.87,6.26h-3.37l12-26.01l12.01,26.01h-3.37l-2.88-6.26H431.59z M437.36,1049.14
					l-4.47,10.11h8.94L437.36,1049.14z"/>
				<path class="st2" d="M454.26,1068.34h-3v-28.73h3V1068.34z"/>
				<path class="st2" d="M461.66,1068.34h-2.99v-28.73h2.99V1068.34z"/>
				<path class="st2" d="M473.07,1056.5v2.47h-7.29v-2.47H473.07z"/>
				<path class="st2" d="M484.75,1042.62c-0.94-0.43-1.61-0.62-2-0.62c-0.64,0-1.12,0.18-1.4,0.6c-0.29,0.4-0.48,0.9-0.6,1.5
					c-0.06,0.45-0.1,0.79-0.12,1.05c-0.01,0.24-0.02,0.6-0.02,1.03v6.66h4.14v2.78h-4.14v12.71h-2.99v-12.71h-1.37v-2.78h1.37v-7.55
					c0-4.06,1.67-6.09,5.03-6.09c0.74,0,1.43,0.13,2.11,0.4V1042.62z"/>
				<path class="st2" d="M489.39,1055.37h0.09c0.39-0.93,0.94-1.66,1.68-2.18c0.74-0.55,1.6-0.79,2.59-0.79
					c0.83,0,1.65,0.24,2.47,0.75l-1.37,2.72c-0.48-0.42-1.1-0.63-1.83-0.63c-1.53,0-2.56,0.62-3.07,1.84
					c-0.22,0.58-0.38,1.17-0.46,1.72c-0.07,0.55-0.11,1.2-0.11,1.92v7.62h-3v-15.49h3V1055.37z"/>
				<path class="st2" d="M499.69,1061.1c0.05,1.38,0.48,2.59,1.33,3.61c0.88,1.02,1.99,1.51,3.37,1.51c1.09,0,1.99-0.25,2.69-0.75
					c0.7-0.51,1.36-1.25,1.98-2.26l2.53,1.43c-0.73,1.32-1.73,2.35-3.02,3.12c-1.27,0.74-2.68,1.11-4.22,1.11
					c-2.32,0-4.2-0.76-5.6-2.31c-1.37-1.59-2.07-3.51-2.07-5.83c0-2.43,0.65-4.45,1.98-6.01c1.28-1.56,3.16-2.31,5.62-2.31
					c2.42,0,4.23,0.75,5.45,2.31c1.25,1.54,1.86,3.52,1.86,5.93v0.46H499.69z M508.59,1058.85c-0.18-1.2-0.64-2.15-1.39-2.83
					c-0.74-0.7-1.72-1.05-2.92-1.05c-0.57,0-1.12,0.08-1.61,0.27c-0.5,0.2-0.95,0.48-1.34,0.82c-0.39,0.36-0.71,0.77-0.97,1.25
					c-0.24,0.49-0.43,0.99-0.52,1.55H508.59z"/>
				<path class="st2" d="M515.96,1061.1c0.05,1.38,0.5,2.59,1.34,3.61c0.86,1.02,1.98,1.51,3.36,1.51c1.1,0,1.99-0.25,2.69-0.75
					c0.7-0.51,1.37-1.25,1.98-2.26l2.53,1.43c-0.73,1.32-1.73,2.35-3,3.12c-1.28,0.74-2.69,1.11-4.23,1.11
					c-2.33,0-4.2-0.76-5.6-2.31c-1.38-1.59-2.07-3.51-2.07-5.83c0-2.43,0.65-4.45,1.97-6.01c1.29-1.56,3.16-2.31,5.65-2.31
					c2.39,0,4.21,0.75,5.42,2.31c1.25,1.54,1.86,3.52,1.86,5.93v0.46H515.96z M524.88,1058.85c-0.18-1.2-0.65-2.15-1.39-2.83
					c-0.75-0.7-1.73-1.05-2.91-1.05c-0.59,0-1.13,0.08-1.63,0.27c-0.5,0.2-0.95,0.48-1.33,0.82c-0.39,0.36-0.73,0.77-0.97,1.25
					c-0.26,0.49-0.43,0.99-0.52,1.55H524.88z"/>
				<path class="st2" d="M537.57,1056.5v2.47h-7.29v-2.47H537.57z"/>
				<path class="st2" d="M553.15,1065.92h-0.05c-0.63,0.95-1.4,1.67-2.33,2.18c-0.92,0.52-1.92,0.77-2.98,0.77
					c-2.33,0-4.14-0.8-5.47-2.41c-1.34-1.62-2-3.59-2-5.96c0-2.24,0.67-4.12,2.03-5.69c1.36-1.62,3.12-2.41,5.31-2.41
					c2.24,0,4.05,1,5.44,3.03h0.05v-15.82h3v28.73h-3V1065.92z M548.24,1066.22c1.59,0,2.83-0.54,3.71-1.61
					c0.9-1.11,1.37-2.45,1.37-4.01c0-1.55-0.46-2.86-1.37-3.95c-0.88-1.07-2.12-1.62-3.71-1.62c-1.48,0-2.68,0.55-3.59,1.67
					c-0.89,1.08-1.34,2.38-1.34,3.9c0,1.56,0.45,2.88,1.34,3.97C545.56,1065.69,546.76,1066.22,548.24,1066.22z"/>
				<path class="st2" d="M561.05,1054.77c1.62-1.58,3.61-2.37,5.94-2.37c2.33,0,4.31,0.79,5.9,2.37c1.63,1.59,2.44,3.55,2.44,5.87
					s-0.81,4.27-2.44,5.86c-1.58,1.59-3.57,2.37-5.9,2.37c-2.34,0-4.32-0.78-5.94-2.37c-1.59-1.59-2.39-3.54-2.39-5.86
					S559.46,1056.36,561.05,1054.77z M561.65,1060.64c0,1.43,0.53,2.7,1.58,3.81c1.02,1.06,2.28,1.58,3.77,1.58
					c1.45,0,2.72-0.53,3.76-1.58c1.05-1.1,1.58-2.37,1.58-3.81c0-1.46-0.52-2.73-1.58-3.81c-1.04-1.07-2.31-1.59-3.76-1.59
					c-1.49,0-2.75,0.52-3.77,1.59C562.18,1057.91,561.65,1059.18,561.65,1060.64z"/>
				<path class="st2" d="M583.4,1062.72l4.6-10.73l4.57,10.73l4.53-9.86h3.41l-7.94,16.02l-4.57-10.35l-4.6,10.35l-7.93-16.02h3.4
					L583.4,1062.72z"/>
				<path class="st2" d="M605.01,1054.93h0.06c0.44-0.83,1.1-1.44,1.95-1.88c0.83-0.45,1.77-0.65,2.76-0.65
					c1.03,0,1.89,0.14,2.6,0.45c0.71,0.3,1.29,0.74,1.71,1.32c0.46,0.58,0.76,1.27,0.95,2.1c0.19,0.82,0.27,1.78,0.27,2.82v9.24h-3
					v-8.87c0-1.53-0.21-2.64-0.66-3.34c-0.46-0.73-1.37-1.1-2.78-1.1c-0.51,0-0.94,0.05-1.31,0.15c-0.34,0.09-0.66,0.23-0.92,0.42
					c-0.27,0.19-0.5,0.41-0.67,0.65c-0.18,0.25-0.33,0.51-0.5,0.81c-0.05,0.14-0.12,0.35-0.17,0.59c-0.06,0.24-0.1,0.49-0.16,0.73
					c-0.03,0.26-0.07,0.51-0.1,0.77c-0.01,0.26-0.03,0.46-0.03,0.61v1.45v7.12h-3v-15.49h3V1054.93z"/>
				<path class="st2" d="M622.58,1068.34h-3v-28.73h3V1068.34z"/>
				<path class="st2" d="M627.85,1054.77c1.63-1.58,3.61-2.37,5.94-2.37c2.32,0,4.3,0.79,5.9,2.37c1.62,1.59,2.43,3.55,2.43,5.87
					s-0.81,4.27-2.43,5.86c-1.6,1.59-3.58,2.37-5.9,2.37c-2.33,0-4.31-0.78-5.94-2.37c-1.61-1.59-2.4-3.54-2.4-5.86
					S626.25,1056.36,627.85,1054.77z M628.46,1060.64c0,1.43,0.52,2.7,1.57,3.81c1.02,1.06,2.28,1.58,3.77,1.58
					c1.47,0,2.72-0.53,3.76-1.58c1.06-1.1,1.58-2.37,1.58-3.81c0-1.46-0.53-2.73-1.58-3.81c-1.04-1.07-2.28-1.59-3.76-1.59
					c-1.49,0-2.75,0.52-3.77,1.59C628.98,1057.91,628.46,1059.18,628.46,1060.64z"/>
				<path class="st2" d="M659.5,1068.34h-3v-2.42h-0.07c-1.33,1.98-3.1,2.95-5.3,2.95c-2.29,0-4.11-0.8-5.48-2.41
					c-1.33-1.62-1.98-3.59-1.98-5.96c0-2.24,0.68-4.12,2.02-5.69c1.36-1.62,3.14-2.41,5.33-2.41c2.23,0,4.04,1,5.41,3.03h0.07v-2.57
					h3V1068.34z M651.6,1066.22c1.57,0,2.81-0.54,3.71-1.61c0.9-1.11,1.35-2.45,1.35-4.01c0-1.55-0.45-2.86-1.35-3.95
					c-0.9-1.07-2.14-1.62-3.71-1.62c-1.49,0-2.7,0.55-3.6,1.67c-0.89,1.08-1.33,2.38-1.33,3.9c0,1.56,0.44,2.88,1.33,3.97
					C648.9,1065.69,650.11,1066.22,651.6,1066.22z"/>
				<path class="st2" d="M675.05,1065.92h-0.07c-0.62,0.95-1.4,1.67-2.32,2.18c-0.91,0.52-1.91,0.77-2.98,0.77
					c-2.32,0-4.13-0.8-5.47-2.41c-1.34-1.62-1.99-3.59-1.99-5.96c0-2.24,0.67-4.12,2.04-5.69c1.35-1.62,3.11-2.41,5.29-2.41
					c2.25,0,4.06,1,5.44,3.03h0.07v-15.82h3v28.73h-3V1065.92z M670.15,1066.22c1.58,0,2.81-0.54,3.7-1.61
					c0.91-1.11,1.36-2.45,1.36-4.01c0-1.55-0.45-2.86-1.36-3.95c-0.89-1.07-2.12-1.62-3.7-1.62c-1.5,0-2.69,0.55-3.61,1.67
					c-0.88,1.08-1.32,2.38-1.32,3.9c0,1.56,0.44,2.88,1.32,3.97C667.46,1065.69,668.65,1066.22,670.15,1066.22z"/>
				<path class="st2" d="M686.65,1066.96c0,0.53-0.18,0.99-0.56,1.36c-0.38,0.37-0.84,0.55-1.38,0.55c-0.52,0-1-0.19-1.37-0.55
					c-0.37-0.37-0.57-0.83-0.57-1.36c0-0.51,0.2-0.96,0.57-1.35c0.37-0.37,0.85-0.56,1.37-0.56c0.53,0,1,0.19,1.38,0.56
					C686.47,1065.99,686.65,1066.45,686.65,1066.96z"/>
				<path class="st2" d="M703.05,1057.26c-1.24-1.39-2.74-2.1-4.47-2.1c-1.45,0-2.67,0.56-3.69,1.64c-1,1.09-1.5,2.38-1.5,3.8
					c0,1.62,0.5,2.91,1.5,3.93c1.04,1.04,2.33,1.57,3.88,1.57c1.61,0,3.04-0.7,4.28-2.07v3.81c-1.29,0.69-2.72,1.02-4.29,1.02
					c-2.31,0-4.29-0.77-5.94-2.35c-1.62-1.55-2.43-3.47-2.43-5.79c0-2.38,0.81-4.36,2.43-5.96c1.62-1.58,3.65-2.37,6.1-2.37
					c1.61,0,2.99,0.33,4.14,1.02V1057.26z"/>
				<path class="st2" d="M707.3,1054.77c1.62-1.58,3.6-2.37,5.94-2.37c2.34,0,4.31,0.79,5.91,2.37c1.61,1.59,2.42,3.55,2.42,5.87
					s-0.8,4.27-2.42,5.86c-1.6,1.59-3.57,2.37-5.91,2.37c-2.33,0-4.31-0.78-5.94-2.37c-1.6-1.59-2.41-3.54-2.41-5.86
					S705.7,1056.36,707.3,1054.77z M707.9,1060.64c0,1.43,0.5,2.7,1.56,3.81c1.02,1.06,2.28,1.58,3.77,1.58
					c1.46,0,2.73-0.53,3.77-1.58c1.04-1.1,1.56-2.37,1.56-3.81c0-1.46-0.53-2.73-1.56-3.81c-1.04-1.07-2.31-1.59-3.77-1.59
					c-1.5,0-2.75,0.52-3.77,1.59C708.4,1057.91,707.9,1059.18,707.9,1060.64z"/>
				<path class="st2" d="M727.2,1054.81h0.08c0.43-0.72,1.02-1.29,1.78-1.76c0.74-0.43,1.53-0.65,2.35-0.65
					c1.95,0,3.45,0.9,4.5,2.73c0.48-0.83,1.16-1.5,2.02-2c0.84-0.5,1.79-0.73,2.78-0.73c3.46,0,5.17,2.22,5.17,6.68v9.26h-3v-8.77
					c0-0.39-0.02-0.8-0.05-1.18c-0.04-0.38-0.09-0.75-0.19-1.13c-0.09-0.35-0.22-0.68-0.41-1c-0.17-0.3-0.42-0.58-0.72-0.83
					c-0.4-0.26-0.91-0.39-1.53-0.39c-0.63,0-1.16,0.13-1.59,0.39c-0.43,0.25-0.76,0.57-0.99,0.92c-0.25,0.35-0.43,0.84-0.56,1.37
					c-0.12,0.54-0.21,1.05-0.25,1.5c-0.02,0.43-0.05,0.95-0.05,1.51v7.62h-3.01v-8.2c0-0.53,0-0.96-0.03-1.31
					c-0.02-0.37-0.09-0.8-0.2-1.35c-0.11-0.57-0.25-0.98-0.43-1.25c-0.18-0.3-0.45-0.58-0.83-0.83c-0.38-0.24-0.84-0.36-1.37-0.36
					c-1.54,0-2.52,0.67-2.96,1.99c-0.21,0.61-0.34,1.21-0.41,1.74c-0.06,0.56-0.09,1.21-0.09,1.96v7.62h-3v-15.49h3V1054.81z"/>
			</g>
			<g>
				<g>
					<path class="st2" d="M208.16,1059.22c14.16,0,28.32,0,42.48,0c1.29,0,1.29-1.99,0-1.99c-14.16,0-28.32,0-42.48,0
						C206.88,1057.23,206.88,1059.22,208.16,1059.22L208.16,1059.22z"/>
				</g>
				<g>
					<path class="st2" d="M773.36,1059.22c14.15,0,28.31,0,42.47,0c1.3,0,1.3-1.99,0-1.99c-14.15,0-28.32,0-42.47,0
						C772.08,1057.23,772.08,1059.22,773.36,1059.22L773.36,1059.22z"/>
				</g>
			</g>
		</g>
	</g>
	<g>
		<path class="st3" d="M240.82,342.02c0,0-6.98-105.74,81.72-170.31s264.36-69.38,350.95,36.93
			c86.59,106.31,24.01,223.94-17.15,269.73c0,0-176.34-38.34-269.51,57.74L240.82,342.02z"/>
		<path class="st4" d="M240.82,342.02c0,0-6.98-105.74,81.72-170.31s264.36-69.38,350.95,36.93
			c86.59,106.31,24.01,223.94-17.15,269.73c0,0-176.34-38.34-269.51,57.74L240.82,342.02z"/>
		<path class="st5" d="M330.18,212.18l186.34,7.73c0,0,132.36,18.66,132.39,141.02c0.02,119.7-88.28,108.44-88.28,108.44
			c-11.82,0.7-126.51,7.65-173.78,66.73c0,0-65.74-31.48-103.84-79.54C232.51,392.86,205.72,262.27,330.18,212.18z"/>
		<path class="st4" d="M330.18,212.18l186.34,7.73c0,0,132.36,18.66,132.39,141.02c0.02,119.7-88.28,108.44-88.28,108.44
			c-11.82,0.7-126.51,7.65-173.78,66.73c0,0-65.74-31.48-103.84-79.54C232.51,392.86,205.72,262.27,330.18,212.18z"/>
		<path class="st5" d="M385.84,254.45c0,0,32.66-18.66,30-68.66c-2.67-49.99-40.4-64.13-72.65-17.33
			C309.19,217.79,347.85,277.12,385.84,254.45z"/>
		<path class="st5" d="M416.1,200.18c0,0,0.64-52.88,44.64-60.3c43.99-7.42,59.32,36.3,58.66,59.77
			c-0.67,23.47-12.24,71.78-66.66,59.77C412.08,250.45,416.1,200.18,416.1,200.18z"/>
		<path class="st4" d="M385.84,254.45c0,0,32.66-18.66,30-68.66c-2.67-49.99-40.4-64.13-72.65-17.33
			C309.19,217.79,347.85,277.12,385.84,254.45z"/>
		<path class="st4" d="M416.1,200.18c0,0,0.64-52.88,44.64-60.3c43.99-7.42,59.32,36.3,58.66,59.77
			c-0.67,23.47-12.24,71.78-66.66,59.77C412.08,250.45,416.1,200.18,416.1,200.18z"/>
		<path d="M408.02,203.56c-0.53,9.85-6.64,17.54-13.65,17.16c-7.01-0.38-12.26-8.67-11.73-18.52c0.53-9.85,6.64-17.54,13.65-17.16
			C403.3,185.41,408.55,193.71,408.02,203.56z"/>
		<path class="st5" d="M402.6,203.2c-0.25,4.65-3.13,8.28-6.44,8.1c-3.31-0.18-5.79-4.09-5.54-8.74c0.25-4.65,3.13-8.28,6.44-8.1
			C400.37,194.64,402.85,198.55,402.6,203.2z"/>
		<ellipse transform="matrix(0.0536 -0.9986 0.9986 0.0536 237.4977 659.9698)" cx="466.91" cy="204.69" rx="17.87" ry="12.71"/>
		<path class="st5" d="M474.18,205.01c-0.25,4.65-3.13,8.28-6.44,8.1c-3.31-0.18-5.79-4.09-5.54-8.74c0.25-4.65,3.13-8.28,6.44-8.1
			C471.95,196.45,474.43,200.37,474.18,205.01z"/>
		
			<ellipse transform="matrix(0.8441 -0.5362 0.5362 0.8441 -85.4458 255.4649)" class="st6" cx="396.61" cy="274.68" rx="29.81" ry="29.81"/>
		
			<ellipse transform="matrix(0.8441 -0.5362 0.5362 0.8441 -85.4458 255.4649)" class="st4" cx="396.61" cy="274.68" rx="29.81" ry="29.81"/>
		<path class="st3" d="M376.84,590.77l-22.07,35.97l38.53,38.53c0,0,24.44-10.47,34.14-24.98
			C437.14,625.77,413.1,573.48,376.84,590.77z"/>
		<path class="st4" d="M376.84,590.77l-22.07,35.97l38.53,38.53c0,0,24.44-10.47,34.14-24.98
			C437.14,625.77,413.1,573.48,376.84,590.77z"/>
		<circle class="st7" cx="374.93" cy="573.92" r="35.27"/>
		<circle class="st4" cx="374.93" cy="573.92" r="35.27"/>
		<path class="st7" d="M337.27,580.35c-1.56,0-3.12-0.57-4.36-1.71c-2.59-2.4-2.72-6.47-0.33-9.06c0.9-0.97,22.64-23.65,80.27-13.98
			c3.48,0.58,5.83,3.88,5.25,7.36c-0.58,3.48-3.87,5.83-7.36,5.25c-26.35-4.42-43.71-1.39-53.64,1.93
			c-10.58,3.54-15.13,8.13-15.18,8.18C340.67,579.67,338.97,580.35,337.27,580.35z"/>
		<path class="st4" d="M337.27,580.35c-1.56,0-3.12-0.57-4.36-1.71c-2.59-2.4-2.72-6.47-0.33-9.06c0.9-0.97,22.64-23.65,80.27-13.98
			c3.48,0.58,5.83,3.88,5.25,7.36c-0.58,3.48-3.87,5.83-7.36,5.25c-26.35-4.42-43.71-1.39-53.64,1.93
			c-10.58,3.54-15.13,8.13-15.18,8.18C340.67,579.67,338.97,580.35,337.27,580.35z"/>
		<path class="st5" d="M402.36,524.62c0,0-19.01,7.83-19.7,15.39c-0.69,7.56,5.84,106,56.53,152.7s72.15-51.17,39.66-124.88
			C446.35,494.13,402.36,524.62,402.36,524.62z"/>
		<path class="st4" d="M402.36,524.62c0,0-19.01,7.83-19.7,15.39c-0.69,7.56,5.84,106,56.53,152.7s72.15-51.17,39.66-124.88
			C446.35,494.13,402.36,524.62,402.36,524.62z"/>
		<path class="st5" d="M696.24,763.16c0,0,36.73,37.74-20.28,53.72c-57.01,15.98-129.27-3.27-134.36-13.44s16.51-53.02,48.56-54.11
			C622.21,748.24,696.24,763.16,696.24,763.16z"/>
		<path class="st4" d="M696.24,763.16c0,0,36.73,37.74-20.28,53.72c-57.01,15.98-129.27-3.27-134.36-13.44s16.51-53.02,48.56-54.11
			C622.21,748.24,696.24,763.16,696.24,763.16z"/>
		<path class="st5" d="M409.7,753.85c0,0-20.82-7.1-27.09,19.14c-6.27,26.24,10.03,56.76,87.78,58.85
			c77.75,2.09,143.89-7.17,111.24-63.78C548.97,711.44,409.7,753.85,409.7,753.85z"/>
		<path class="st4" d="M409.7,753.85c0,0-20.82-7.1-27.09,19.14c-6.27,26.24,10.03,56.76,87.78,58.85
			c77.75,2.09,143.89-7.17,111.24-63.78C548.97,711.44,409.7,753.85,409.7,753.85z"/>
		<path class="st3" d="M402.36,524.62c0,0,93.06,28.9,67.59,144.49c0,0-52.41,24.98-60.25,84.74c0,0,40.65,30.86,171.92,14.2
			c0,0,62.21,11.76,114.61-4.9c0,0,7.78-26.24,30.6-62.65c54.17-86.44-59.35-177.09-66.52-215.42
			C660.32,485.08,540.16,427.56,402.36,524.62z"/>
		<path class="st4" d="M402.36,524.62c0,0,93.06,28.9,67.59,144.49c0,0-52.41,24.98-60.25,84.74c0,0,40.65,30.86,171.92,14.2
			c0,0,62.21,11.76,114.61-4.9c0,0,7.78-26.24,30.6-62.65c54.17-86.44-59.35-177.09-66.52-215.42
			C660.32,485.08,540.16,427.56,402.36,524.62z"/>
		<path class="st6" d="M381.96,547.58c-2.23,0-4.46-0.82-6.19-2.48c-3.57-3.42-3.7-9.07-0.28-12.64
			c1.15-1.21,28.82-29.82,77.98-51.33c45.33-19.83,118.21-36.99,207.97-6.11c4.68,1.61,7.16,6.7,5.55,11.38
			c-1.61,4.67-6.7,7.16-11.37,5.55c-67.42-23.19-132.78-21.41-194.28,5.28c-46.11,20.01-72.66,47.34-72.92,47.61
			C386.67,546.65,384.32,547.58,381.96,547.58z"/>
		<path class="st4" d="M381.96,547.58c-2.23,0-4.46-0.82-6.19-2.48c-3.57-3.42-3.7-9.07-0.28-12.64
			c1.15-1.21,28.82-29.82,77.98-51.33c45.33-19.83,118.21-36.99,207.97-6.11c4.68,1.61,7.16,6.7,5.55,11.38
			c-1.61,4.67-6.7,7.16-11.37,5.55c-67.42-23.19-132.78-21.41-194.28,5.28c-46.11,20.01-72.66,47.34-72.92,47.61
			C386.67,546.65,384.32,547.58,381.96,547.58z"/>
		<path class="st4" d="M390.15,303.78c0,0-9.54,22.64-9.26,66.61c0,0-12.68-10.71-26.5-5.36c-13.81,5.36-29.58,40.87,12.41,58.35
			c0,0-22.56,6.76-16.07,29.31c6.48,22.55,28.75,19.17,41.15,12.4"/>
		<path class="st4" d="M430.95,684.24c38.39-19.38,11.87-87.92,11.87-87.92c-16,14.32-45.71,24.23-45.75,24.25
			C404.36,643.09,415.15,666.26,430.95,684.24z"/>
		<circle class="st5" cx="650.21" cy="585.63" r="44.69"/>
		<circle class="st4" cx="650.21" cy="585.63" r="44.69"/>
		<circle class="st5" cx="354.77" cy="665.27" r="38.53"/>
		<circle class="st4" cx="354.77" cy="665.27" r="38.53"/>
		<path class="st4" d="M524.69,478.74c0,0,89.06,24.4,110.97,64.64"/>
		<path class="st4" d="M496.41,562.31c0,0,93.64,40.91,112.11,39.44"/>
		<path class="st4" d="M451.74,308.24c0,0,83.35-18.39,92.39-19.64c9.04-1.25,46.14-4.68,46.14-4.68"/>
		<path class="st4" d="M454.35,335.36c0,0,78.56,4.99,90.41,5.92c11.85,0.94,54.87,6.23,54.87,6.23"/>
		<line class="st4" x1="451.74" y1="360.92" x2="577.96" y2="425.77"/>
		<line class="st4" x1="229.19" y1="237.93" x2="336.06" y2="289.18"/>
		<line class="st4" x1="328.13" y1="311.46" x2="192.05" y2="304.82"/>
		<line class="st4" x1="328.13" y1="340.17" x2="221.18" y2="377.46"/>
		
			<ellipse transform="matrix(0.7071 -0.7071 0.7071 0.7071 -241.2179 727.9929)" class="st6" cx="758.16" cy="655.17" rx="29.81" ry="29.81"/>
		
			<ellipse transform="matrix(0.7071 -0.7071 0.7071 0.7071 -241.2179 727.9929)" class="st4" cx="758.16" cy="655.17" rx="29.81" ry="29.81"/>
		<line class="st4" x1="728.35" y1="655.17" x2="707.88" y2="656.91"/>
		<path class="st4" d="M581.62,768.05c0,0,21.72-17.63,37.77-36.79c6.14-7.33,15.05-11.96,24.6-12.38
			c4.25-0.18,8.81,0.42,13.29,2.47"/>
	</g>
	<g>
		<g>
			<path class="st8" d="M354.01,966.04c-1.15-0.22-2.13-0.75-2.95-1.59c-0.82-0.84-1.23-1.88-1.23-3.12v-27.91
				c-0.8,0.13-1.57,0.03-2.32-0.3c-0.75-0.33-1.35-0.77-1.79-1.33c-0.44-0.55-0.7-1.19-0.76-1.92c-0.07-0.73,0.17-1.43,0.7-2.09
				c0.57-0.75,1.26-1.38,2.05-1.89c0.8-0.51,1.63-0.93,2.52-1.26c0.88-0.33,1.8-0.61,2.75-0.83c0.95-0.22,1.87-0.42,2.75-0.6
				c2.47-0.4,4.95-0.5,7.43-0.3c2.47,0.2,4.82,0.74,7.03,1.62c2.21,0.88,4.23,2.12,6.07,3.71c1.83,1.59,3.33,3.58,4.47,5.97
				c0.71,1.46,1.22,2.97,1.53,4.54c0.31,1.57,0.49,3.15,0.53,4.74c0.04,2.08-0.2,4.09-0.73,6.03c-0.53,1.95-1.33,3.77-2.39,5.47
				c-1.06,1.7-2.34,3.22-3.84,4.54c-1.5,1.33-3.18,2.43-5.04,3.32c-1.64,0.75-3.37,1.3-5.2,1.66c-1.83,0.35-3.64,0.66-5.4,0.93
				c-0.88,0.13-1.82,0.28-2.82,0.43c-0.99,0.15-1.96,0.23-2.88,0.23L354.01,966.04z M361.17,930.83c-0.58,0-1.12,0.02-1.62,0.07
				c-0.51,0.04-1.05,0.11-1.62,0.2v26.59c0.27,0,0.49-0.02,0.66-0.07c0.18-0.04,0.35-0.07,0.53-0.07c0.18,0,0.33-0.02,0.46-0.07
				c0.62-0.09,1.13-0.15,1.52-0.2c0.4-0.04,0.77-0.1,1.13-0.17c0.35-0.07,0.72-0.14,1.09-0.23c0.38-0.09,0.81-0.2,1.29-0.33
				c2.56-0.66,4.58-1.71,6.07-3.15c1.48-1.44,2.6-3.41,3.35-5.93c0.49-1.46,0.71-2.94,0.66-4.44c-0.04-1.5-0.32-2.94-0.83-4.31
				c-0.51-1.37-1.25-2.62-2.22-3.75c-0.97-1.13-2.17-2.02-3.58-2.68c-1.15-0.53-2.29-0.88-3.42-1.06
				C363.53,931.06,362.37,930.92,361.17,930.83z"/>
			<path class="st8" d="M426.15,946.61c-0.75,2.48-1.71,4.9-2.88,7.26c-1.17,2.37-2.6,4.48-4.28,6.33
				c-1.68,1.86-3.64,3.36-5.87,4.51c-2.23,1.15-4.79,1.72-7.66,1.72c-1.86-0.09-3.33-0.25-4.41-0.5c-1.08-0.24-2.13-0.61-3.15-1.09
				c-1.81-0.53-3.37-1.38-4.67-2.55c-1.3-1.17-2.4-2.53-3.28-4.08c-0.88-1.55-1.56-3.19-2.02-4.94c-0.46-1.75-0.76-3.44-0.9-5.07
				c-0.22-2.87,0.02-5.79,0.73-8.75c0.71-2.96,1.83-5.69,3.38-8.19c1.55-2.5,3.49-4.64,5.83-6.43c2.34-1.79,5.02-2.97,8.02-3.55
				c1.55-0.27,3.12-0.35,4.71-0.27c1.59,0.09,3.14,0.4,4.64,0.93c1.24,0.44,2.39,0.95,3.45,1.52c1.06,0.58,2.08,1.3,3.05,2.19
				c1.28,1.15,2.36,2.48,3.25,3.98c0.88,1.5,1.53,3.07,1.92,4.71c0.49,2.08,0.71,4.13,0.66,6.17
				C426.63,942.55,426.45,944.58,426.15,946.61z M408.98,957.82c1.33-0.57,2.49-1.34,3.48-2.29c0.99-0.95,1.87-2,2.62-3.15
				c0.75-1.15,1.38-2.38,1.89-3.68c0.51-1.3,0.96-2.62,1.36-3.94c0.26-1.68,0.41-3.4,0.43-5.17c0.02-1.77-0.34-3.45-1.09-5.04
				c-0.62-1.33-1.56-2.46-2.82-3.41c-1.26-0.95-2.64-1.61-4.14-1.99c-1.5-0.38-3.02-0.45-4.54-0.23c-1.52,0.22-2.88,0.82-4.08,1.79
				c-1.68,1.41-3.04,3-4.08,4.74c-1.04,1.75-1.82,3.68-2.35,5.8c-0.44,1.68-0.69,3.45-0.73,5.3c-0.04,1.86,0.24,3.62,0.86,5.3
				c0.49,1.24,1.2,2.36,2.15,3.38c0.95,1.02,2.02,1.81,3.22,2.39c1.19,0.57,2.46,0.9,3.81,0.96
				C406.31,958.65,407.65,958.39,408.98,957.82z"/>
			<path class="st8" d="M441.2,961.86c-0.13,1.1-0.6,2.01-1.39,2.72c-0.8,0.71-1.66,1.16-2.59,1.36c-0.93,0.2-1.78,0.1-2.55-0.3
				c-0.77-0.4-1.18-1.19-1.23-2.39c-0.22-5.08-0.33-10.35-0.33-15.81c0-5.46,0-10.88,0-16.28c-0.71-0.27-1.24-0.66-1.59-1.19
				c-0.35-0.53-0.56-1.12-0.63-1.76c-0.07-0.64,0.01-1.29,0.23-1.96c0.22-0.66,0.55-1.24,1-1.72c0.49-0.53,1.15-1.02,1.99-1.46
				c0.84-0.44,1.76-0.85,2.75-1.23c0.99-0.38,1.98-0.7,2.95-0.96c0.97-0.27,1.79-0.46,2.45-0.6c2.78-0.57,5.59-0.56,8.42,0.03
				c2.83,0.6,5.31,1.67,7.46,3.22c2.14,1.55,3.75,3.56,4.81,6.03c1.06,2.48,1.17,5.3,0.33,8.49c-0.27,0.88-0.6,1.77-1,2.65
				c-0.4,0.88-0.86,1.7-1.39,2.45c-0.75,1.15-1.64,2.17-2.65,3.05c-1.02,0.88-2.12,1.7-3.31,2.45c0.84,0.88,1.63,1.81,2.39,2.78
				c0.75,0.97,1.59,1.86,2.52,2.65c0.35,0.31,0.87,0.8,1.56,1.46c0.68,0.66,1.35,1.37,1.99,2.12c0.64,0.75,1.2,1.49,1.69,2.22
				c0.49,0.73,0.71,1.34,0.66,1.82c-0.05,0.84-0.28,1.6-0.7,2.29c-0.42,0.69-0.93,1.22-1.53,1.59c-0.6,0.38-1.25,0.56-1.96,0.56
				c-0.71,0-1.41-0.24-2.12-0.73c-0.8-0.62-1.55-1.35-2.25-2.19c-0.71-0.84-1.39-1.61-2.06-2.32c-1.46-1.59-2.88-3.19-4.28-4.81
				c-1.39-1.61-2.82-3.19-4.28-4.74c-0.88,0.18-1.78,0.3-2.69,0.36c-0.91,0.07-1.8,0.14-2.68,0.23v9.41V961.86z M453.06,929.77
				c-1.77-1.06-3.7-1.66-5.8-1.79c-2.1-0.13-4.12,0.16-6.07,0.86v14.98c1.99-0.13,3.94-0.39,5.87-0.76c1.92-0.38,3.7-1.2,5.34-2.49
				c0.88-0.71,1.6-1.54,2.15-2.49c0.55-0.95,0.88-1.92,1-2.92c0.11-0.99-0.02-1.97-0.4-2.92
				C454.78,931.31,454.08,930.48,453.06,929.77z"/>
			<path class="st8" d="M495.56,955.3c0.79,0.04,1.49,0.25,2.09,0.63c0.6,0.38,1.08,0.83,1.46,1.36c0.38,0.53,0.6,1.14,0.66,1.82
				c0.07,0.69-0.08,1.38-0.43,2.09c-0.13,0.31-0.41,0.67-0.83,1.09c-0.42,0.42-0.81,0.67-1.16,0.76c-2.83,0.84-5.74,1.36-8.72,1.56
				c-2.98,0.2-5.93,0.14-8.85-0.17c-0.84-0.09-1.76-0.18-2.75-0.27c-0.99-0.09-1.87-0.38-2.62-0.86c-1.37-0.88-2.06-2.14-2.06-3.78
				V931.3c-0.49-0.35-0.88-0.8-1.19-1.33c-0.31-0.53-0.5-1.09-0.56-1.69c-0.07-0.6,0.01-1.17,0.23-1.72
				c0.22-0.55,0.6-1.03,1.13-1.43c0.88-0.71,1.9-1.18,3.05-1.43c1.15-0.24,2.28-0.45,3.38-0.63c2.3-0.35,4.6-0.53,6.9-0.53
				c2.3,0,4.64-0.02,7.03-0.07c0.71,0,1.52-0.06,2.45-0.17c0.93-0.11,1.75-0.03,2.45,0.23c0.84,0.31,1.5,0.8,1.99,1.46
				c0.49,0.66,0.77,1.37,0.86,2.12c0.09,0.75-0.06,1.48-0.43,2.19c-0.38,0.71-1.03,1.26-1.96,1.66c-1.11,0.44-2.29,0.64-3.55,0.6
				c-1.26-0.04-2.46-0.07-3.61-0.07c-1.68,0-3.36,0.02-5.04,0.07c-1.68,0.04-3.36,0.18-5.04,0.4v9.22c1.59,0.09,3.18,0.09,4.77,0
				c1.59-0.09,3.18-0.2,4.77-0.33c0.71-0.04,1.41-0.11,2.12-0.2c0.71-0.09,1.44-0.09,2.19,0c0.97,0.13,1.72,0.53,2.25,1.19
				c0.53,0.66,0.85,1.4,0.96,2.22c0.11,0.82-0.03,1.62-0.43,2.42c-0.4,0.8-1.04,1.37-1.92,1.72c-0.75,0.31-1.77,0.54-3.05,0.7
				c-1.28,0.16-2.63,0.27-4.04,0.33c-1.41,0.07-2.81,0.1-4.18,0.1c-1.37,0-2.52-0.02-3.45-0.07v8.15c2.43,0.31,4.88,0.35,7.36,0.13
				c2.47-0.22,4.91-0.64,7.29-1.26H495.56z"/>
			<path class="st8" d="M540.71,961.6c-0.13,0.97-0.46,1.8-0.99,2.49c-0.53,0.68-1.14,1.16-1.82,1.43c-0.69,0.27-1.42,0.3-2.19,0.1
				c-0.77-0.2-1.49-0.72-2.16-1.56c-0.58-0.71-0.89-1.49-0.96-2.35c-0.07-0.86-0.19-1.71-0.37-2.55c-0.44-2.43-1.08-4.93-1.92-7.49
				c-2.74,0.04-5.46,0.07-8.16,0.07c-2.7,0-5.39,0.02-8.09,0.07c-0.4,1.15-0.74,2.32-1.03,3.51c-0.29,1.19-0.56,2.37-0.83,3.51
				c-0.22,0.88-0.42,1.8-0.6,2.75c-0.18,0.95-0.58,1.78-1.19,2.49c-0.75,0.88-1.56,1.38-2.42,1.49c-0.86,0.11-1.64-0.03-2.32-0.43
				c-0.69-0.4-1.24-1.01-1.66-1.82c-0.42-0.82-0.56-1.76-0.43-2.82c0.13-1.37,0.4-2.72,0.8-4.04c0.4-1.33,0.77-2.65,1.13-3.98
				c1.99-7.6,4.55-14.96,7.69-22.08c0.27-0.62,0.54-1.21,0.83-1.79c0.29-0.57,0.56-1.15,0.83-1.72c0.31-0.62,0.62-1.28,0.93-1.99
				c0.31-0.71,0.67-1.36,1.09-1.96c0.42-0.6,0.92-1.1,1.49-1.52c0.57-0.42,1.28-0.63,2.12-0.63c1.1,0,2.03,0.35,2.78,1.06
				c3.01,3.01,5.48,6.4,7.43,10.18c1.94,3.78,3.69,7.64,5.24,11.57c0.93-0.04,1.83-0.04,2.72,0c0.88,0.04,1.68,0.44,2.39,1.19
				c0.62,0.62,0.98,1.28,1.09,1.99c0.11,0.71,0.04,1.39-0.2,2.06c-0.24,0.66-0.64,1.24-1.19,1.72c-0.55,0.49-1.23,0.82-2.02,0.99
				c0.44,1.55,0.83,3.13,1.16,4.74c0.33,1.61,0.61,3.24,0.83,4.87V961.6z M527.18,943.56c-0.84-1.99-1.74-3.97-2.69-5.93
				c-0.95-1.97-2.02-3.83-3.21-5.6c-0.88,1.95-1.71,3.88-2.49,5.8c-0.77,1.92-1.49,3.88-2.16,5.87c2.08-0.04,3.9-0.07,5.47-0.07
				C523.68,943.63,525.37,943.61,527.18,943.56z"/>
			<path class="st8" d="M592.62,961.79c-0.13,0.97-0.49,1.8-1.06,2.49c-0.57,0.68-1.24,1.16-1.99,1.43
				c-0.75,0.27-1.53,0.28-2.32,0.03c-0.79-0.24-1.46-0.83-1.99-1.76c-0.44-0.75-0.7-1.54-0.76-2.35c-0.07-0.82-0.14-1.67-0.23-2.55
				c-0.09-0.97-0.19-1.82-0.3-2.55c-0.11-0.73-0.23-1.58-0.37-2.55c-0.4-2.65-0.84-5.27-1.33-7.86c-0.49-2.59-1.04-5.18-1.66-7.79
				c-0.88,2.21-1.72,4.4-2.52,6.56c-0.8,2.17-1.59,4.35-2.39,6.56c-0.62,1.64-1.23,3.28-1.82,4.94c-0.6,1.66-1.29,3.26-2.09,4.81
				c-0.26,0.53-0.71,0.96-1.33,1.29c-0.62,0.33-1.28,0.52-1.99,0.56c-0.71,0.04-1.37-0.06-1.99-0.3c-0.62-0.24-1.08-0.65-1.39-1.23
				c-1.9-3.67-3.78-7.31-5.63-10.94c-1.86-3.62-3.71-7.27-5.57-10.94c-0.22,2.25-0.42,4.52-0.6,6.8c-0.18,2.28-0.38,4.54-0.6,6.8
				c-0.04,0.71-0.09,1.57-0.13,2.59c-0.04,1.02-0.12,2.04-0.23,3.08c-0.11,1.04-0.24,2.03-0.4,2.98c-0.16,0.95-0.41,1.69-0.76,2.22
				c-0.53,0.88-1.23,1.46-2.09,1.72c-0.86,0.27-1.7,0.29-2.52,0.07c-0.82-0.22-1.5-0.67-2.05-1.36c-0.55-0.69-0.81-1.56-0.76-2.62
				c0.09-1.81,0.24-3.6,0.46-5.37c0.22-1.77,0.42-3.56,0.6-5.37c0.35-3.93,0.72-7.84,1.09-11.73c0.38-3.89,0.74-7.82,1.09-11.8
				c0.09-1.15,0.32-2.21,0.7-3.18c0.38-0.97,1.18-1.66,2.42-2.06c0.49-0.18,1-0.24,1.53-0.2c0.53,0.04,1.02,0.2,1.46,0.46
				c0.97,0.62,1.73,1.47,2.29,2.55c0.55,1.08,1.07,2.11,1.56,3.08c0.84,1.59,1.66,3.19,2.45,4.81c0.79,1.61,1.59,3.22,2.39,4.81
				c0.97,2.03,1.96,4.03,2.95,6c0.99,1.97,2.02,3.94,3.08,5.93c0.26-0.66,0.52-1.33,0.76-1.99c0.24-0.66,0.5-1.33,0.76-1.99
				c0.49-1.15,0.94-2.31,1.36-3.48c0.42-1.17,0.85-2.33,1.29-3.48c0.62-1.5,1.2-2.98,1.76-4.44c0.55-1.46,1.09-2.94,1.62-4.44
				c0.44-1.1,0.86-2.3,1.26-3.58c0.4-1.28,1.04-2.36,1.92-3.25c0.62-0.66,1.29-1.06,2.02-1.19c0.73-0.13,1.41-0.08,2.05,0.17
				c0.64,0.24,1.21,0.65,1.72,1.23c0.51,0.57,0.87,1.24,1.09,1.99c0.27,1.02,0.57,2.17,0.93,3.45c0.35,1.28,0.66,2.43,0.93,3.45
				c0.49,1.86,0.93,3.68,1.33,5.47c0.4,1.79,0.77,3.61,1.13,5.47c0.62,3.05,1.16,6.07,1.62,9.05c0.46,2.98,0.87,6,1.23,9.05V961.79z
				"/>
			<path class="st8" d="M634.98,946.61c-0.75,2.48-1.71,4.9-2.88,7.26c-1.17,2.37-2.6,4.48-4.28,6.33
				c-1.68,1.86-3.64,3.36-5.87,4.51c-2.23,1.15-4.79,1.72-7.66,1.72c-1.86-0.09-3.33-0.25-4.41-0.5c-1.08-0.24-2.13-0.61-3.15-1.09
				c-1.81-0.53-3.37-1.38-4.67-2.55c-1.3-1.17-2.4-2.53-3.28-4.08c-0.88-1.55-1.56-3.19-2.02-4.94c-0.46-1.75-0.76-3.44-0.9-5.07
				c-0.22-2.87,0.02-5.79,0.73-8.75c0.71-2.96,1.83-5.69,3.38-8.19c1.55-2.5,3.49-4.64,5.83-6.43c2.34-1.79,5.02-2.97,8.02-3.55
				c1.55-0.27,3.12-0.35,4.71-0.27c1.59,0.09,3.14,0.4,4.64,0.93c1.24,0.44,2.39,0.95,3.45,1.52c1.06,0.58,2.08,1.3,3.05,2.19
				c1.28,1.15,2.36,2.48,3.25,3.98c0.88,1.5,1.53,3.07,1.92,4.71c0.49,2.08,0.71,4.13,0.66,6.17
				C635.47,942.55,635.29,944.58,634.98,946.61z M617.81,957.82c1.33-0.57,2.49-1.34,3.48-2.29c0.99-0.95,1.87-2,2.62-3.15
				c0.75-1.15,1.38-2.38,1.89-3.68c0.51-1.3,0.96-2.62,1.36-3.94c0.26-1.68,0.41-3.4,0.43-5.17c0.02-1.77-0.34-3.45-1.09-5.04
				c-0.62-1.33-1.56-2.46-2.82-3.41c-1.26-0.95-2.64-1.61-4.14-1.99c-1.5-0.38-3.02-0.45-4.54-0.23c-1.52,0.22-2.88,0.82-4.08,1.79
				c-1.68,1.41-3.04,3-4.08,4.74c-1.04,1.75-1.82,3.68-2.35,5.8c-0.44,1.68-0.69,3.45-0.73,5.3c-0.04,1.86,0.24,3.62,0.86,5.3
				c0.49,1.24,1.2,2.36,2.16,3.38c0.95,1.02,2.02,1.81,3.21,2.39c1.19,0.57,2.46,0.9,3.81,0.96
				C615.15,958.65,616.49,958.39,617.81,957.82z"/>
			<path class="st8" d="M668.2,924.2c0.27-0.88,0.7-1.61,1.29-2.19c0.6-0.57,1.25-0.95,1.96-1.13c0.71-0.18,1.42-0.13,2.15,0.13
				c0.73,0.27,1.36,0.8,1.89,1.59c0.18,0.22,0.34,0.49,0.5,0.8c0.15,0.31,0.23,0.6,0.23,0.86c0.09,6.32,0.05,12.63-0.1,18.93
				c-0.16,6.3-0.41,12.61-0.76,18.93c0,1.02-0.32,1.81-0.96,2.39c-0.64,0.57-1.37,0.94-2.19,1.09c-0.82,0.15-1.65,0.07-2.49-0.27
				c-0.84-0.33-1.46-0.9-1.86-1.69c-0.04-0.04-0.07-0.09-0.07-0.13v0.13c-2.87-4.73-5.9-9.27-9.08-13.62
				c-3.18-4.35-6.5-8.67-9.94-12.96v14.98c0,2.03,0,3.74,0,5.1c0,1.37-0.02,2.49-0.07,3.35c-0.04,0.86-0.1,1.54-0.17,2.02
				c-0.07,0.49-0.17,0.91-0.3,1.26c-0.4,1.06-1.01,1.77-1.82,2.12c-0.82,0.35-1.65,0.44-2.49,0.27c-0.84-0.18-1.57-0.62-2.19-1.33
				c-0.62-0.71-0.93-1.59-0.93-2.65c0-0.62,0-1.59,0-2.92c0-1.33,0-2.83,0-4.51c0-1.68,0-3.48,0-5.4c0-1.92,0-3.81,0-5.67
				s-0.01-3.59-0.03-5.2c-0.02-1.61-0.03-2.97-0.03-4.08c0-1.5-0.02-2.99-0.07-4.48c-0.04-1.48-0.04-2.97,0-4.48
				c0-0.75,0.19-1.39,0.56-1.92c0.38-0.53,0.85-0.94,1.43-1.23c0.57-0.29,1.19-0.45,1.86-0.5c0.66-0.04,1.3,0.04,1.92,0.27
				c0.53,0.18,1.07,0.54,1.62,1.09c0.55,0.55,1.09,1.15,1.62,1.79c0.53,0.64,1.03,1.28,1.49,1.92c0.46,0.64,0.85,1.16,1.16,1.56
				c1.15,1.41,2.47,3.04,3.98,4.87c1.5,1.83,2.89,3.57,4.18,5.2c1.28,1.68,2.53,3.36,3.75,5.04c1.21,1.68,2.4,3.36,3.55,5.04
				c0.13-4.02,0.22-8.02,0.26-12c0.04-3.98,0.07-7.98,0.07-12L668.2,924.2z"/>
		</g>
		<g>
			
				<ellipse transform="matrix(0.9994 -0.0356 0.0356 0.9994 -33.2714 22.5348)" class="st7" cx="615.35" cy="944.35" rx="21.79" ry="21.79"/>
			
				<ellipse transform="matrix(0.9994 -0.0356 0.0356 0.9994 -33.2714 22.5348)" class="st9" cx="615.35" cy="944.35" rx="21.79" ry="21.79"/>
			<path class="st7" d="M637.89,956.34c-1.3,0-2.59-0.51-3.55-1.53c-16.66-17.69-40.92-15.66-41.16-15.63
				c-2.69,0.24-5.06-1.72-5.31-4.41c-0.25-2.68,1.72-5.06,4.41-5.31c1.19-0.11,29.28-2.46,49.17,18.66c1.85,1.96,1.76,5.05-0.21,6.9
				C640.29,955.9,639.09,956.34,637.89,956.34z"/>
			<path class="st10" d="M637.89,956.34c-1.3,0-2.59-0.51-3.55-1.53c-16.66-17.69-40.92-15.66-41.16-15.63
				c-2.69,0.24-5.06-1.72-5.31-4.41c-0.25-2.68,1.72-5.06,4.41-5.31c1.19-0.11,29.28-2.46,49.17,18.66c1.85,1.96,1.76,5.05-0.21,6.9
				C640.29,955.9,639.09,956.34,637.89,956.34z"/>
			<path class="st11" d="M611.47,944.66c-3.39-1.22-6.64-0.8-7.28,0.95c-0.47,1.31,0.66,2.98,2.67,4.25
				c-1.48,2.92-3.26,7.66-2.65,12.95c0.11,1,0.96,1.73,1.94,1.73c0.07,0,0.15,0,0.22-0.01c1.07-0.12,1.84-1.09,1.72-2.16
				c-0.51-4.42,1.07-8.49,2.37-10.99c2.89,0.71,5.45,0.19,6-1.33C617.09,948.3,614.86,945.89,611.47,944.66z"/>
			<path class="st10" d="M611.47,944.66c-3.39-1.22-6.64-0.8-7.28,0.95c-0.47,1.31,0.66,2.98,2.67,4.25
				c-1.48,2.92-3.26,7.66-2.65,12.95c0.11,1,0.96,1.73,1.94,1.73c0.07,0,0.15,0,0.22-0.01c1.07-0.12,1.84-1.09,1.72-2.16
				c-0.51-4.42,1.07-8.49,2.37-10.99c2.89,0.71,5.45,0.19,6-1.33C617.09,948.3,614.86,945.89,611.47,944.66z"/>
		</g>
	</g>
</g>
<g id="Layer_4">
</g>
<g id="Layer_3">
</g>
</svg>
