<?xml version="1.0" encoding="utf-8"?>
<!-- Generator: Adobe Illustrator 25.2.1, SVG Export Plug-In . SVG Version: 6.00 Build 0)  -->
<svg version="1.1" xmlns="http://www.w3.org/2000/svg" xmlns:xlink="http://www.w3.org/1999/xlink" x="0px" y="0px"
	 viewBox="0 0 1024 1093.94" style="enable-background:new 0 0 1024 1093.94;" xml:space="preserve">
<style type="text/css">
	.st0{fill:#FFFFFF;stroke:#231F20;stroke-miterlimit:10;}
	.st1{fill:#90E0FC;}
	.st2{fill:#1D1F26;}
	.st3{fill:#DBEADB;}
	.st4{fill:#FFD2A9;}
	.st5{fill:none;stroke:#000000;stroke-width:2.3732;stroke-linecap:round;stroke-linejoin:round;stroke-miterlimit:10;}
	.st6{fill:#1C6A92;}
	.st7{fill:#FFE171;}
	.st8{fill:#FFFFFF;}
	.st9{fill:#E4E5E6;}
	.st10{fill:none;stroke:#A4A6A9;stroke-width:1.4464;stroke-linecap:round;stroke-linejoin:round;stroke-miterlimit:10;}
	.st11{fill:#FAEA29;}
	.st12{fill:none;stroke:#000000;stroke-width:1.8382;stroke-linecap:round;stroke-linejoin:round;stroke-miterlimit:10;}
	.st13{fill:#231F20;}
	.st14{fill:#D65050;}
	.st15{fill:#EB6E74;}
	.st16{fill:#035EAC;}
	.st17{fill:#CDE7E8;}
</style>
<g id="Layer_1">
	<rect x="-0.8" class="st0" width="1024" height="1093.94"/>
	<g>
		<path class="st1" d="M430.65,924.2c0.26-0.88,0.7-1.61,1.29-2.19c0.6-0.57,1.25-0.95,1.96-1.13c0.71-0.18,1.43-0.13,2.16,0.13
			c0.73,0.27,1.36,0.8,1.89,1.59c0.18,0.22,0.34,0.49,0.5,0.8c0.15,0.31,0.23,0.6,0.23,0.86c0.09,6.32,0.05,12.63-0.1,18.93
			c-0.16,6.3-0.41,12.61-0.76,18.93c0,1.02-0.32,1.81-0.96,2.39c-0.64,0.57-1.37,0.94-2.19,1.09c-0.82,0.15-1.65,0.07-2.49-0.27
			c-0.84-0.33-1.46-0.89-1.86-1.69c-0.04-0.04-0.07-0.09-0.07-0.13v0.13c-2.87-4.73-5.9-9.27-9.08-13.62
			c-3.18-4.35-6.5-8.67-9.94-12.96v14.98c0,2.03,0,3.74,0,5.11c0,1.37-0.02,2.49-0.07,3.35c-0.04,0.86-0.1,1.54-0.17,2.02
			s-0.17,0.91-0.3,1.26c-0.4,1.06-1.01,1.77-1.82,2.12c-0.82,0.35-1.65,0.44-2.49,0.27c-0.84-0.18-1.57-0.62-2.19-1.33
			c-0.62-0.71-0.93-1.59-0.93-2.65c0-0.62,0-1.59,0-2.92c0-1.33,0-2.83,0-4.51c0-1.68,0-3.48,0-5.4c0-1.92,0-3.81,0-5.67
			c0-1.86-0.01-3.59-0.03-5.2c-0.02-1.61-0.03-2.97-0.03-4.08c0-1.5-0.02-2.99-0.07-4.48c-0.04-1.48-0.04-2.97,0-4.47
			c0-0.75,0.19-1.39,0.56-1.92c0.38-0.53,0.85-0.94,1.43-1.23c0.57-0.29,1.19-0.45,1.86-0.5c0.66-0.04,1.3,0.04,1.92,0.26
			c0.53,0.18,1.07,0.54,1.62,1.09c0.55,0.55,1.09,1.15,1.62,1.79c0.53,0.64,1.03,1.28,1.49,1.92c0.46,0.64,0.85,1.16,1.16,1.56
			c1.15,1.42,2.47,3.04,3.98,4.87c1.5,1.83,2.89,3.57,4.18,5.2c1.28,1.68,2.53,3.36,3.75,5.04c1.21,1.68,2.4,3.36,3.55,5.04
			c0.13-4.02,0.22-8.02,0.27-12c0.04-3.98,0.07-7.98,0.07-12L430.65,924.2z"/>
		<path class="st1" d="M483.03,946.61c-0.75,2.48-1.71,4.9-2.88,7.26c-1.17,2.37-2.6,4.48-4.28,6.33c-1.68,1.86-3.64,3.36-5.87,4.51
			c-2.23,1.15-4.78,1.72-7.66,1.72c-1.86-0.09-3.33-0.25-4.41-0.5c-1.08-0.24-2.13-0.61-3.15-1.09c-1.81-0.53-3.37-1.38-4.67-2.55
			c-1.3-1.17-2.4-2.53-3.28-4.08c-0.88-1.55-1.56-3.19-2.02-4.94c-0.46-1.75-0.76-3.44-0.9-5.07c-0.22-2.87,0.02-5.79,0.73-8.75
			c0.71-2.96,1.83-5.69,3.38-8.19c1.55-2.5,3.49-4.64,5.83-6.43c2.34-1.79,5.02-2.97,8.02-3.55c1.55-0.27,3.12-0.35,4.71-0.27
			c1.59,0.09,3.14,0.4,4.64,0.93c1.24,0.44,2.39,0.95,3.45,1.52c1.06,0.58,2.08,1.3,3.05,2.19c1.28,1.15,2.36,2.48,3.25,3.98
			c0.88,1.5,1.53,3.07,1.92,4.71c0.49,2.08,0.71,4.13,0.66,6.17C483.51,942.55,483.34,944.58,483.03,946.61z M465.86,957.82
			c1.33-0.57,2.49-1.34,3.48-2.29c0.99-0.95,1.87-2,2.62-3.15c0.75-1.15,1.38-2.38,1.89-3.68c0.51-1.3,0.96-2.62,1.36-3.94
			c0.26-1.68,0.41-3.4,0.43-5.17c0.02-1.77-0.34-3.45-1.09-5.04c-0.62-1.33-1.56-2.46-2.82-3.41c-1.26-0.95-2.64-1.61-4.14-1.99
			c-1.5-0.38-3.02-0.45-4.54-0.23c-1.52,0.22-2.88,0.82-4.08,1.79c-1.68,1.42-3.04,3-4.08,4.74c-1.04,1.75-1.82,3.68-2.35,5.8
			c-0.44,1.68-0.69,3.45-0.73,5.3c-0.04,1.86,0.24,3.62,0.86,5.3c0.49,1.24,1.2,2.36,2.15,3.38c0.95,1.02,2.02,1.81,3.22,2.39
			c1.19,0.58,2.46,0.9,3.81,0.96C463.19,958.64,464.53,958.39,465.86,957.82z"/>
		<path class="st1" d="M493.11,965.11c-1.9-0.22-3.06-0.85-3.48-1.89c-0.42-1.04-0.43-2.18-0.03-3.42v-26.92
			c-0.71,0-1.34-0.19-1.89-0.56c-0.55-0.38-0.99-0.85-1.33-1.42c-0.33-0.57-0.5-1.2-0.5-1.89c0-0.68,0.2-1.31,0.6-1.89
			c0.88-1.33,2.02-2.36,3.42-3.12c1.39-0.75,2.84-1.37,4.34-1.86c2.34-0.75,4.7-1.17,7.06-1.26c2.36-0.09,4.7,0.4,6.99,1.46
			c2.08,0.97,3.71,2.23,4.91,3.78c1.19,1.55,1.94,3.19,2.25,4.94c0.31,1.75,0.15,3.54-0.46,5.37c-0.62,1.84-1.72,3.55-3.32,5.14
			c2.08,1.33,3.56,2.91,4.44,4.74c0.88,1.84,1.25,3.72,1.09,5.67c-0.16,1.95-0.77,3.82-1.86,5.64c-1.08,1.81-2.55,3.38-4.41,4.71
			c-1.1,0.8-2.4,1.4-3.88,1.82c-1.48,0.42-3.01,0.72-4.57,0.9c-1.57,0.18-3.13,0.26-4.67,0.26c-1.55,0-2.96-0.04-4.24-0.13
			L493.11,965.11z M497.68,938.06c0.79,0,1.59,0,2.39,0c0.79,0,1.58-0.08,2.35-0.23c0.77-0.15,1.52-0.41,2.25-0.76
			c0.73-0.35,1.38-0.86,1.96-1.52c0.84-0.93,1.14-1.91,0.89-2.95c-0.24-1.04-0.87-1.87-1.89-2.49c-1.15-0.75-2.45-1.14-3.91-1.16
			c-1.46-0.02-2.81,0.14-4.04,0.5V938.06z M507.23,948.27c-0.8-0.53-1.57-0.93-2.32-1.19c-0.75-0.27-1.51-0.44-2.29-0.53
			c-0.77-0.09-1.56-0.11-2.35-0.07c-0.79,0.04-1.66,0.09-2.58,0.13v10.61c0.97,0,2.01-0.03,3.12-0.1c1.1-0.07,2.17-0.24,3.18-0.53
			c1.02-0.29,1.97-0.7,2.85-1.23c0.88-0.53,1.59-1.26,2.12-2.19c0.13-1.06,0.11-1.98-0.07-2.75
			C508.71,949.65,508.16,948.93,507.23,948.27z"/>
		<path class="st1" d="M540.24,956.56c1.15,0.04,2.1,0.39,2.85,1.03c0.75,0.64,1.24,1.38,1.46,2.22c0.22,0.84,0.15,1.67-0.2,2.49
			c-0.35,0.82-1.08,1.45-2.19,1.89c-0.8,0.31-1.74,0.51-2.82,0.6c-1.08,0.09-2.17,0.12-3.25,0.1c-1.08-0.02-2.09-0.07-3.02-0.13
			c-0.93-0.07-1.64-0.1-2.12-0.1h-3.91c-0.93,0-1.72-0.25-2.39-0.76c-0.66-0.51-1.14-1.12-1.43-1.82c-0.29-0.71-0.35-1.46-0.2-2.25
			c0.15-0.79,0.56-1.52,1.23-2.19c0.62-0.62,1.44-0.97,2.45-1.06c1.02-0.09,2.03-0.09,3.05,0V930.3c-1.02,0-1.97-0.01-2.85-0.03
			c-0.88-0.02-1.77-0.34-2.65-0.96c-0.66-0.49-1.1-1.05-1.33-1.69c-0.22-0.64-0.25-1.28-0.1-1.92c0.15-0.64,0.45-1.25,0.89-1.82
			c0.44-0.57,1-0.99,1.66-1.26c0.62-0.26,1.26-0.4,1.92-0.4c2.25,0,4.52-0.01,6.8-0.03c2.28-0.02,4.56-0.01,6.86,0.03
			c0.22,0,0.43,0.07,0.63,0.2c0.2,0.13,0.41,0.24,0.63,0.33c1.02,0.58,1.7,1.39,2.05,2.45c0.35,1.06,0.22,2.1-0.4,3.12
			c-0.31,0.53-0.7,0.94-1.16,1.23c-0.46,0.29-0.97,0.49-1.53,0.6c-0.55,0.11-1.12,0.17-1.69,0.17c-0.58,0-1.13,0-1.66,0v26.39
			c0.35,0,0.67-0.01,0.96-0.03c0.29-0.02,0.61-0.06,0.96-0.1H540.24z"/>
		<path class="st1" d="M580.68,922.74c0.84,0.35,1.54,0.92,2.09,1.69c0.55,0.77,0.88,1.57,1,2.39c0.11,0.82-0.04,1.56-0.46,2.22
			c-0.42,0.66-1.16,1.11-2.22,1.33c-2.03,0.35-3.94,0.51-5.73,0.46c-1.79-0.04-3.35-0.07-4.67-0.07c0,5.3,0.02,10.52,0.07,15.65
			c0.04,5.13,0.02,10.54-0.07,16.24c0,1.24-0.42,2.13-1.26,2.68c-0.84,0.55-1.76,0.78-2.75,0.7c-0.99-0.09-1.91-0.49-2.75-1.19
			c-0.84-0.71-1.26-1.68-1.26-2.92c-0.04-5.21-0.07-10.41-0.07-15.58c0-5.17,0-10.36,0-15.58c-0.4,0-1.07,0.02-2.02,0.07
			c-0.95,0.04-1.99,0.06-3.12,0.03c-1.13-0.02-2.29-0.11-3.48-0.27c-1.19-0.15-2.23-0.45-3.12-0.89c-0.71-0.35-1.17-0.87-1.39-1.56
			c-0.22-0.68-0.23-1.38-0.03-2.09c0.2-0.71,0.56-1.37,1.09-1.99c0.53-0.62,1.19-1.04,1.99-1.26c3.71-0.22,7.3-0.3,10.77-0.23
			c3.47,0.07,6.99,0.1,10.57,0.1c1.06,0,2.12-0.01,3.18-0.03c1.06-0.02,2.14-0.03,3.25-0.03L580.68,922.74z"/>
		<path class="st1" d="M621.39,961.59c-0.13,0.97-0.46,1.8-0.99,2.49c-0.53,0.68-1.14,1.16-1.82,1.43c-0.69,0.26-1.41,0.3-2.19,0.1
			c-0.77-0.2-1.49-0.72-2.16-1.56c-0.58-0.71-0.89-1.49-0.96-2.35c-0.07-0.86-0.19-1.71-0.37-2.55c-0.44-2.43-1.08-4.93-1.92-7.49
			c-2.74,0.04-5.46,0.07-8.16,0.07c-2.7,0-5.39,0.02-8.09,0.07c-0.4,1.15-0.74,2.32-1.03,3.51c-0.29,1.19-0.56,2.37-0.83,3.51
			c-0.22,0.88-0.42,1.8-0.6,2.75c-0.18,0.95-0.58,1.78-1.19,2.49c-0.75,0.88-1.56,1.38-2.42,1.49c-0.86,0.11-1.64-0.03-2.32-0.43
			c-0.69-0.4-1.24-1.01-1.66-1.82c-0.42-0.82-0.56-1.76-0.43-2.82c0.13-1.37,0.4-2.72,0.8-4.04c0.4-1.33,0.77-2.65,1.13-3.98
			c1.99-7.6,4.55-14.96,7.69-22.08c0.27-0.62,0.54-1.21,0.83-1.79c0.29-0.57,0.56-1.15,0.83-1.72c0.31-0.62,0.62-1.28,0.93-1.99
			c0.31-0.71,0.67-1.36,1.09-1.96c0.42-0.6,0.92-1.1,1.49-1.53c0.57-0.42,1.28-0.63,2.12-0.63c1.1,0,2.03,0.35,2.78,1.06
			c3.01,3.01,5.48,6.4,7.43,10.18c1.94,3.78,3.69,7.64,5.24,11.57c0.93-0.04,1.83-0.04,2.72,0c0.88,0.04,1.68,0.44,2.39,1.19
			c0.62,0.62,0.98,1.28,1.09,1.99c0.11,0.71,0.04,1.39-0.2,2.06c-0.24,0.66-0.64,1.24-1.19,1.72c-0.55,0.49-1.23,0.82-2.02,0.99
			c0.44,1.55,0.83,3.13,1.16,4.74c0.33,1.61,0.61,3.24,0.83,4.87V961.59z M607.87,943.56c-0.84-1.99-1.74-3.97-2.69-5.93
			c-0.95-1.97-2.02-3.83-3.21-5.6c-0.88,1.95-1.71,3.88-2.49,5.8c-0.77,1.92-1.49,3.88-2.16,5.87c2.08-0.04,3.9-0.07,5.47-0.07
			C604.36,943.63,606.05,943.61,607.87,943.56z"/>
	</g>
	<rect y="1023.94" class="st2" width="1024" height="70"/>
	<g>
		<g>
			<g>
				<path class="st3" d="M278.12,1043.38h5.2c4.09,0,7.46,1.08,10.11,3.2c2.67,2.14,4,5.19,4,9.15c0,4.08-1.32,7.2-3.96,9.36
					c-2.65,2.17-6.06,3.24-10.24,3.24h-5.1V1043.38z M281.25,1065.5h1.1c1.62,0,3.16-0.16,4.6-0.48c1.45-0.33,2.71-0.86,3.79-1.62
					c1.07-0.78,1.94-1.77,2.58-2.99c0.64-1.22,0.97-2.74,0.97-4.55c0-1.79-0.32-3.32-0.95-4.59c-0.63-1.28-1.51-2.26-2.66-2.97
					c-1.12-0.72-2.38-1.25-3.75-1.58c-1.37-0.35-2.9-0.5-4.59-0.5h-1.1V1065.5z"/>
				<path class="st3" d="M302.03,1061.1c0.04,1.38,0.49,2.59,1.33,3.61c0.87,1.02,1.99,1.51,3.36,1.51c1.09,0,1.98-0.25,2.69-0.75
					c0.7-0.51,1.36-1.25,1.98-2.26l2.54,1.43c-0.73,1.32-1.75,2.35-3.03,3.12c-1.28,0.74-2.68,1.11-4.21,1.11
					c-2.34,0-4.2-0.76-5.6-2.31c-1.38-1.59-2.07-3.51-2.07-5.83c0-2.43,0.66-4.45,1.98-6.01c1.29-1.56,3.17-2.31,5.64-2.31
					c2.41,0,4.21,0.75,5.44,2.31c1.24,1.54,1.87,3.52,1.87,5.93v0.46H302.03z M310.93,1058.85c-0.19-1.2-0.63-2.15-1.39-2.83
					c-0.75-0.7-1.72-1.05-2.92-1.05c-0.57,0-1.12,0.08-1.62,0.27c-0.5,0.2-0.94,0.48-1.33,0.82c-0.38,0.36-0.71,0.77-0.98,1.25
					c-0.25,0.49-0.42,0.99-0.5,1.55H310.93z"/>
				<path class="st3" d="M322.77,1056.4c-0.45-0.92-1.11-1.37-2-1.37c-0.42,0-0.8,0.15-1.13,0.45c-0.34,0.3-0.5,0.67-0.5,1.08
					c0,0.4,0.13,0.75,0.38,1.02c0.25,0.28,0.6,0.53,1.05,0.78c0.29,0.13,0.51,0.25,0.67,0.3c0.15,0.09,0.4,0.21,0.77,0.37
					c0.17,0.07,0.33,0.16,0.46,0.2c0.13,0.04,0.23,0.08,0.3,0.12c1.1,0.51,1.99,1.09,2.64,1.76c0.64,0.65,0.97,1.55,0.97,2.64
					c0,1.46-0.54,2.69-1.6,3.67c-1.04,0.98-2.31,1.46-3.77,1.46c-0.61,0-1.19-0.08-1.74-0.25c-0.55-0.15-1.07-0.39-1.56-0.69
					c-0.48-0.3-0.89-0.66-1.26-1.09c-0.37-0.44-0.65-0.92-0.85-1.43l2.57-1.15c0.73,1.32,1.68,1.97,2.84,1.97
					c0.47,0,0.9-0.12,1.29-0.38c0.41-0.25,0.71-0.57,0.89-0.95c0.19-0.4,0.23-0.81,0.12-1.28c-0.11-0.43-0.45-0.87-1.03-1.27
					l-2.95-1.55c-0.5-0.26-0.95-0.53-1.33-0.8c-0.38-0.27-0.69-0.55-0.93-0.84c-0.25-0.3-0.43-0.63-0.56-0.98
					c-0.12-0.38-0.18-0.79-0.18-1.28c0-1.26,0.44-2.32,1.34-3.19c0.89-0.88,1.97-1.31,3.26-1.31c1.96,0,3.38,0.88,4.27,2.71
					L322.77,1056.4z"/>
				<path class="st3" d="M333.54,1045.77c0,0.55-0.2,1.03-0.6,1.42c-0.4,0.4-0.89,0.6-1.46,0.6c-0.58,0-1.07-0.19-1.47-0.6
					c-0.4-0.39-0.6-0.87-0.6-1.42c0-0.58,0.2-1.07,0.6-1.48c0.4-0.41,0.89-0.6,1.47-0.6c0.57,0,1.06,0.19,1.46,0.6
					C333.34,1044.7,333.54,1045.18,333.54,1045.77z M332.98,1068.34h-3.01v-15.49h3.01V1068.34z"/>
				<path class="st3" d="M352.39,1068.06c0,2.9-0.55,5.17-1.67,6.79c-1.12,1.58-3.1,2.37-5.94,2.37c-2.2,0-4-0.63-5.4-1.88
					c-1.38-1.25-2.09-2.96-2.13-5.13h2.99c0,1.39,0.44,2.46,1.28,3.24c0.87,0.75,2,1.13,3.4,1.13c1.71,0,2.88-0.49,3.52-1.5
					c0.63-1,0.94-2.38,0.94-4.2v-2.95h-0.07c-0.62,0.95-1.39,1.67-2.31,2.18c-0.92,0.52-1.91,0.77-2.98,0.77
					c-2.32,0-4.15-0.8-5.48-2.41c-1.33-1.62-1.98-3.59-1.98-5.96c0-2.24,0.67-4.12,2.02-5.69c1.36-1.62,3.12-2.41,5.31-2.41
					c2.28,0,4.11,1.04,5.42,3.08h0.07v-2.63h3V1068.06z M344.49,1066.22c1.57,0,2.8-0.54,3.69-1.61c0.91-1.11,1.37-2.45,1.37-4.01
					c0-1.55-0.46-2.86-1.37-3.95c-0.88-1.07-2.12-1.62-3.69-1.62c-1.5,0-2.7,0.55-3.61,1.67c-0.89,1.08-1.34,2.38-1.34,3.9
					c0,1.56,0.45,2.88,1.34,3.97C341.8,1065.69,343,1066.22,344.49,1066.22z"/>
				<path class="st3" d="M359.29,1054.93h0.07c0.43-0.83,1.09-1.44,1.93-1.88c0.85-0.45,1.77-0.65,2.77-0.65
					c1.02,0,1.88,0.14,2.6,0.45c0.7,0.3,1.28,0.74,1.71,1.32c0.44,0.58,0.75,1.27,0.94,2.1c0.19,0.82,0.28,1.78,0.28,2.82v9.24h-3
					v-8.87c0-1.53-0.23-2.64-0.66-3.34c-0.45-0.73-1.37-1.1-2.77-1.1c-0.52,0-0.95,0.05-1.3,0.15c-0.36,0.09-0.67,0.23-0.94,0.42
					c-0.27,0.19-0.49,0.41-0.67,0.65c-0.17,0.25-0.35,0.51-0.5,0.81c-0.07,0.14-0.13,0.35-0.19,0.59c-0.05,0.24-0.1,0.49-0.14,0.73
					c-0.05,0.26-0.09,0.51-0.1,0.77c-0.02,0.26-0.03,0.46-0.03,0.61v1.45v7.12h-3v-15.49h3V1054.93z"/>
				<path class="st3" d="M383.14,1039.61h3v15.82h0.07c1.38-2.03,3.19-3.03,5.44-3.03c2.17,0,3.95,0.8,5.31,2.41
					c1.35,1.56,2.03,3.45,2.03,5.69c0,2.37-0.67,4.34-2,5.96c-1.34,1.61-3.17,2.41-5.47,2.41c-1.06,0-2.06-0.25-2.99-0.77
					c-0.92-0.51-1.69-1.23-2.31-2.18h-0.07v2.42h-3V1039.61z M390.91,1066.22c1.58,0,2.81-0.54,3.7-1.61
					c0.91-1.11,1.36-2.45,1.36-4.01c0-1.55-0.45-2.86-1.36-3.95c-0.89-1.07-2.12-1.62-3.7-1.62c-1.49,0-2.7,0.55-3.61,1.67
					c-0.89,1.08-1.34,2.38-1.34,3.9c0,1.56,0.45,2.88,1.34,3.97C388.21,1065.69,389.42,1066.22,390.91,1066.22z"/>
				<path class="st3" d="M399.41,1052.85h3.5l5.27,9.83l4.91-9.83h3.37l-12.65,24.37h-3.4l6.15-11.53L399.41,1052.85z"/>
				<path class="st3" d="M431.59,1062.08l-2.87,6.26h-3.37l12-26.01l12.01,26.01h-3.37l-2.88-6.26H431.59z M437.36,1049.14
					l-4.47,10.11h8.94L437.36,1049.14z"/>
				<path class="st3" d="M454.26,1068.34h-3v-28.73h3V1068.34z"/>
				<path class="st3" d="M461.66,1068.34h-2.99v-28.73h2.99V1068.34z"/>
				<path class="st3" d="M473.07,1056.5v2.47h-7.29v-2.47H473.07z"/>
				<path class="st3" d="M484.75,1042.62c-0.94-0.43-1.61-0.62-2-0.62c-0.64,0-1.12,0.18-1.4,0.6c-0.29,0.4-0.48,0.9-0.6,1.5
					c-0.06,0.45-0.1,0.79-0.12,1.05c-0.01,0.24-0.02,0.6-0.02,1.03v6.66h4.14v2.78h-4.14v12.71h-2.99v-12.71h-1.37v-2.78h1.37v-7.55
					c0-4.06,1.67-6.09,5.03-6.09c0.74,0,1.43,0.13,2.11,0.4V1042.62z"/>
				<path class="st3" d="M489.39,1055.37h0.09c0.39-0.93,0.94-1.66,1.68-2.18c0.74-0.55,1.6-0.79,2.59-0.79
					c0.83,0,1.65,0.24,2.47,0.75l-1.37,2.72c-0.48-0.42-1.1-0.63-1.83-0.63c-1.53,0-2.56,0.62-3.07,1.84
					c-0.22,0.58-0.38,1.17-0.46,1.72c-0.07,0.55-0.11,1.2-0.11,1.92v7.62h-3v-15.49h3V1055.37z"/>
				<path class="st3" d="M499.69,1061.1c0.05,1.38,0.48,2.59,1.33,3.61c0.88,1.02,1.99,1.51,3.37,1.51c1.09,0,1.99-0.25,2.69-0.75
					c0.7-0.51,1.36-1.25,1.98-2.26l2.53,1.43c-0.73,1.32-1.73,2.35-3.02,3.12c-1.27,0.74-2.68,1.11-4.22,1.11
					c-2.32,0-4.2-0.76-5.6-2.31c-1.37-1.59-2.07-3.51-2.07-5.83c0-2.43,0.65-4.45,1.98-6.01c1.28-1.56,3.16-2.31,5.62-2.31
					c2.42,0,4.23,0.75,5.45,2.31c1.25,1.54,1.86,3.52,1.86,5.93v0.46H499.69z M508.59,1058.85c-0.18-1.2-0.64-2.15-1.39-2.83
					c-0.74-0.7-1.72-1.05-2.92-1.05c-0.57,0-1.12,0.08-1.61,0.27c-0.5,0.2-0.95,0.48-1.34,0.82c-0.39,0.36-0.71,0.77-0.97,1.25
					c-0.24,0.49-0.43,0.99-0.52,1.55H508.59z"/>
				<path class="st3" d="M515.96,1061.1c0.05,1.38,0.5,2.59,1.34,3.61c0.86,1.02,1.98,1.51,3.36,1.51c1.1,0,1.99-0.25,2.69-0.75
					c0.7-0.51,1.37-1.25,1.98-2.26l2.53,1.43c-0.73,1.32-1.73,2.35-3,3.12c-1.28,0.74-2.69,1.11-4.23,1.11
					c-2.33,0-4.2-0.76-5.6-2.31c-1.38-1.59-2.07-3.51-2.07-5.83c0-2.43,0.65-4.45,1.97-6.01c1.29-1.56,3.16-2.31,5.65-2.31
					c2.39,0,4.21,0.75,5.42,2.31c1.25,1.54,1.86,3.52,1.86,5.93v0.46H515.96z M524.88,1058.85c-0.18-1.2-0.65-2.15-1.39-2.83
					c-0.75-0.7-1.73-1.05-2.91-1.05c-0.59,0-1.13,0.08-1.63,0.27c-0.5,0.2-0.95,0.48-1.33,0.82c-0.39,0.36-0.73,0.77-0.97,1.25
					c-0.26,0.49-0.43,0.99-0.52,1.55H524.88z"/>
				<path class="st3" d="M537.57,1056.5v2.47h-7.29v-2.47H537.57z"/>
				<path class="st3" d="M553.15,1065.92h-0.05c-0.63,0.95-1.4,1.67-2.33,2.18c-0.92,0.52-1.92,0.77-2.98,0.77
					c-2.33,0-4.14-0.8-5.47-2.41c-1.34-1.62-2-3.59-2-5.96c0-2.24,0.67-4.12,2.03-5.69c1.36-1.62,3.12-2.41,5.31-2.41
					c2.24,0,4.05,1,5.44,3.03h0.05v-15.82h3v28.73h-3V1065.92z M548.24,1066.22c1.59,0,2.83-0.54,3.71-1.61
					c0.9-1.11,1.37-2.45,1.37-4.01c0-1.55-0.46-2.86-1.37-3.95c-0.88-1.07-2.12-1.62-3.71-1.62c-1.48,0-2.68,0.55-3.59,1.67
					c-0.89,1.08-1.34,2.38-1.34,3.9c0,1.56,0.45,2.88,1.34,3.97C545.56,1065.69,546.76,1066.22,548.24,1066.22z"/>
				<path class="st3" d="M561.05,1054.77c1.62-1.58,3.61-2.37,5.94-2.37c2.33,0,4.31,0.79,5.9,2.37c1.63,1.59,2.44,3.55,2.44,5.87
					c0,2.32-0.81,4.27-2.44,5.86c-1.58,1.59-3.57,2.37-5.9,2.37c-2.34,0-4.32-0.78-5.94-2.37c-1.59-1.59-2.39-3.54-2.39-5.86
					C558.66,1058.32,559.46,1056.36,561.05,1054.77z M561.65,1060.64c0,1.43,0.53,2.7,1.58,3.81c1.02,1.06,2.28,1.58,3.77,1.58
					c1.45,0,2.72-0.53,3.76-1.58c1.05-1.1,1.58-2.37,1.58-3.81c0-1.46-0.52-2.73-1.58-3.81c-1.04-1.07-2.31-1.59-3.76-1.59
					c-1.49,0-2.75,0.52-3.77,1.59C562.18,1057.91,561.65,1059.18,561.65,1060.64z"/>
				<path class="st3" d="M583.4,1062.72l4.6-10.73l4.57,10.73l4.53-9.86h3.41l-7.94,16.02l-4.57-10.35l-4.6,10.35l-7.93-16.02h3.4
					L583.4,1062.72z"/>
				<path class="st3" d="M605.01,1054.93h0.06c0.44-0.83,1.1-1.44,1.95-1.88c0.83-0.45,1.77-0.65,2.76-0.65
					c1.03,0,1.89,0.14,2.6,0.45c0.71,0.3,1.29,0.74,1.71,1.32c0.46,0.58,0.76,1.27,0.95,2.1c0.19,0.82,0.27,1.78,0.27,2.82v9.24h-3
					v-8.87c0-1.53-0.21-2.64-0.66-3.34c-0.46-0.73-1.37-1.1-2.78-1.1c-0.51,0-0.94,0.05-1.31,0.15c-0.34,0.09-0.66,0.23-0.92,0.42
					c-0.27,0.19-0.5,0.41-0.67,0.65c-0.18,0.25-0.33,0.51-0.5,0.81c-0.05,0.14-0.12,0.35-0.17,0.59c-0.06,0.24-0.1,0.49-0.16,0.73
					c-0.03,0.26-0.07,0.51-0.1,0.77c-0.01,0.26-0.03,0.46-0.03,0.61v1.45v7.12h-3v-15.49h3V1054.93z"/>
				<path class="st3" d="M622.58,1068.34h-3v-28.73h3V1068.34z"/>
				<path class="st3" d="M627.85,1054.77c1.63-1.58,3.61-2.37,5.94-2.37c2.32,0,4.3,0.79,5.9,2.37c1.62,1.59,2.43,3.55,2.43,5.87
					c0,2.32-0.81,4.27-2.43,5.86c-1.6,1.59-3.58,2.37-5.9,2.37c-2.33,0-4.31-0.78-5.94-2.37c-1.61-1.59-2.4-3.54-2.4-5.86
					C625.45,1058.32,626.25,1056.36,627.85,1054.77z M628.46,1060.64c0,1.43,0.52,2.7,1.57,3.81c1.02,1.06,2.28,1.58,3.77,1.58
					c1.47,0,2.72-0.53,3.76-1.58c1.06-1.1,1.58-2.37,1.58-3.81c0-1.46-0.53-2.73-1.58-3.81c-1.04-1.07-2.28-1.59-3.76-1.59
					c-1.49,0-2.75,0.52-3.77,1.59C628.98,1057.91,628.46,1059.18,628.46,1060.64z"/>
				<path class="st3" d="M659.5,1068.34h-3v-2.42h-0.07c-1.33,1.98-3.1,2.95-5.3,2.95c-2.29,0-4.11-0.8-5.48-2.41
					c-1.33-1.62-1.98-3.59-1.98-5.96c0-2.24,0.68-4.12,2.02-5.69c1.36-1.62,3.14-2.41,5.33-2.41c2.23,0,4.04,1,5.41,3.03h0.07v-2.57
					h3V1068.34z M651.6,1066.22c1.57,0,2.81-0.54,3.71-1.61c0.9-1.11,1.35-2.45,1.35-4.01c0-1.55-0.45-2.86-1.35-3.95
					c-0.9-1.07-2.14-1.62-3.71-1.62c-1.49,0-2.7,0.55-3.6,1.67c-0.89,1.08-1.33,2.38-1.33,3.9c0,1.56,0.44,2.88,1.33,3.97
					C648.9,1065.69,650.11,1066.22,651.6,1066.22z"/>
				<path class="st3" d="M675.05,1065.92h-0.07c-0.62,0.95-1.4,1.67-2.32,2.18c-0.91,0.52-1.91,0.77-2.98,0.77
					c-2.32,0-4.13-0.8-5.47-2.41c-1.34-1.62-1.99-3.59-1.99-5.96c0-2.24,0.67-4.12,2.04-5.69c1.35-1.62,3.11-2.41,5.29-2.41
					c2.25,0,4.06,1,5.44,3.03h0.07v-15.82h3v28.73h-3V1065.92z M670.15,1066.22c1.58,0,2.81-0.54,3.7-1.61
					c0.91-1.11,1.36-2.45,1.36-4.01c0-1.55-0.45-2.86-1.36-3.95c-0.89-1.07-2.12-1.62-3.7-1.62c-1.5,0-2.69,0.55-3.61,1.67
					c-0.88,1.08-1.32,2.38-1.32,3.9c0,1.56,0.44,2.88,1.32,3.97C667.46,1065.69,668.65,1066.22,670.15,1066.22z"/>
				<path class="st3" d="M686.65,1066.96c0,0.53-0.18,0.99-0.56,1.36c-0.38,0.37-0.84,0.55-1.38,0.55c-0.52,0-1-0.19-1.37-0.55
					c-0.37-0.37-0.57-0.83-0.57-1.36c0-0.51,0.2-0.96,0.57-1.35c0.37-0.37,0.85-0.56,1.37-0.56c0.53,0,1,0.19,1.38,0.56
					C686.47,1065.99,686.65,1066.45,686.65,1066.96z"/>
				<path class="st3" d="M703.05,1057.26c-1.24-1.39-2.74-2.1-4.47-2.1c-1.45,0-2.67,0.56-3.69,1.64c-1,1.09-1.5,2.38-1.5,3.8
					c0,1.62,0.5,2.91,1.5,3.93c1.04,1.04,2.33,1.57,3.88,1.57c1.61,0,3.04-0.7,4.28-2.07v3.81c-1.29,0.69-2.72,1.02-4.29,1.02
					c-2.31,0-4.29-0.77-5.94-2.35c-1.62-1.55-2.43-3.47-2.43-5.79c0-2.38,0.81-4.36,2.43-5.96c1.62-1.58,3.65-2.37,6.1-2.37
					c1.61,0,2.99,0.33,4.14,1.02V1057.26z"/>
				<path class="st3" d="M707.3,1054.77c1.62-1.58,3.6-2.37,5.94-2.37c2.34,0,4.31,0.79,5.91,2.37c1.61,1.59,2.42,3.55,2.42,5.87
					c0,2.32-0.8,4.27-2.42,5.86c-1.6,1.59-3.57,2.37-5.91,2.37c-2.33,0-4.31-0.78-5.94-2.37c-1.6-1.59-2.41-3.54-2.41-5.86
					C704.89,1058.32,705.7,1056.36,707.3,1054.77z M707.9,1060.64c0,1.43,0.5,2.7,1.56,3.81c1.02,1.06,2.28,1.58,3.77,1.58
					c1.46,0,2.73-0.53,3.77-1.58c1.04-1.1,1.56-2.37,1.56-3.81c0-1.46-0.53-2.73-1.56-3.81c-1.04-1.07-2.31-1.59-3.77-1.59
					c-1.5,0-2.75,0.52-3.77,1.59C708.4,1057.91,707.9,1059.18,707.9,1060.64z"/>
				<path class="st3" d="M727.2,1054.81h0.08c0.43-0.72,1.02-1.29,1.78-1.76c0.74-0.43,1.53-0.65,2.35-0.65
					c1.95,0,3.45,0.9,4.5,2.73c0.48-0.83,1.16-1.5,2.02-2c0.84-0.5,1.79-0.73,2.78-0.73c3.46,0,5.17,2.22,5.17,6.68v9.26h-3v-8.77
					c0-0.39-0.02-0.8-0.05-1.18c-0.04-0.38-0.09-0.75-0.19-1.13c-0.09-0.35-0.22-0.68-0.41-1c-0.17-0.3-0.42-0.58-0.72-0.83
					c-0.4-0.26-0.91-0.39-1.53-0.39c-0.63,0-1.16,0.13-1.59,0.39c-0.43,0.25-0.76,0.57-0.99,0.92c-0.25,0.35-0.43,0.84-0.56,1.37
					c-0.12,0.54-0.21,1.05-0.25,1.5c-0.02,0.43-0.05,0.95-0.05,1.51v7.62h-3.01v-8.2c0-0.53,0-0.96-0.03-1.31
					c-0.02-0.37-0.09-0.8-0.2-1.35c-0.11-0.57-0.25-0.98-0.43-1.25c-0.18-0.3-0.45-0.58-0.83-0.83c-0.38-0.24-0.84-0.36-1.37-0.36
					c-1.54,0-2.52,0.67-2.96,1.99c-0.21,0.61-0.34,1.21-0.41,1.74c-0.06,0.56-0.09,1.21-0.09,1.96v7.62h-3v-15.49h3V1054.81z"/>
			</g>
			<g>
				<g>
					<path class="st3" d="M208.16,1059.22c14.16,0,28.32,0,42.48,0c1.29,0,1.29-1.99,0-1.99c-14.16,0-28.32,0-42.48,0
						C206.88,1057.23,206.88,1059.22,208.16,1059.22L208.16,1059.22z"/>
				</g>
				<g>
					<path class="st3" d="M773.36,1059.22c14.15,0,28.31,0,42.47,0c1.3,0,1.3-1.99,0-1.99c-14.15,0-28.32,0-42.47,0
						C772.08,1057.23,772.08,1059.22,773.36,1059.22L773.36,1059.22z"/>
				</g>
			</g>
		</g>
	</g>
	<g>
		<path class="st4" d="M203.12,579.37c0,0-4.44,9.56,5.65,12.65c10.09,3.09,23.5-8.06,42.27,5.56S236.11,563.01,203.12,579.37z"/>
		<path class="st5" d="M203.12,579.37c0,0-4.44,9.56,5.65,12.65c10.09,3.09,23.5-8.06,42.27,5.56S236.11,563.01,203.12,579.37z"/>
		<path class="st4" d="M516.18,659.55c0,0,51.1,65.47,86.39,88.12c35.29,22.65,63.21-34.77,47.93-49.52
			c-15.28-14.75-36.35-32.96-41.09-38.6c-4.74-5.64-27.6-41.99-27.6-41.99S511.44,609.35,516.18,659.55z"/>
		<path class="st5" d="M516.18,659.55c0,0,51.1,65.47,86.39,88.12c35.29,22.65,63.21-34.77,47.93-49.52
			c-15.28-14.75-36.35-32.96-41.09-38.6c-4.74-5.64-27.6-41.99-27.6-41.99S511.44,609.35,516.18,659.55z"/>
		<path class="st4" d="M585.79,636.71c0,0,110.84,78.1,117.47,81.42c6.63,3.31,65.05-30.46,32.8-58.58
			c-32.25-28.12-41.63-24.8-46.6-29.22c-4.97-4.42-12.37-19.22-36.83-37.22C628.17,575.1,565.51,614.93,585.79,636.71z"/>
		<path class="st5" d="M585.79,636.71c0,0,110.84,78.1,117.47,81.42c6.63,3.31,65.05-30.46,32.8-58.58
			c-32.25-28.12-41.63-24.8-46.6-29.22c-4.97-4.42-12.37-19.22-36.83-37.22C628.17,575.1,565.51,614.93,585.79,636.71z"/>
		<path class="st6" d="M444.73,554.69c0,0,0,19.39,14.85,39.82c11.23,15.44,19.26,23.87,21.29,30.27
			c2.04,6.4,10.64,30.02,10.64,30.02s16.68,10,40.84,0.98c24.16-9.02,34.87-22.75,34.87-22.75s1.97,6.2,9.68,4.61
			c7.71-1.58,36.64,1.09,66.95-30.79c0,0,16.29-19.58,9.36-27.46c-6.93-7.89-4.61-15.23-8.09-22.75
			c-12.77-27.66-26.39-47.67-46.54-52.62C579.4,499.29,443.83,540.85,444.73,554.69z"/>
		<path class="st5" d="M444.73,554.69c0,0,0,19.39,14.85,39.82c11.23,15.44,19.26,23.87,21.29,30.27
			c2.04,6.4,10.64,30.02,10.64,30.02s16.68,10,40.84,0.98c24.16-9.02,34.87-22.75,34.87-22.75s1.97,6.2,9.68,4.61
			c7.71-1.58,36.64,1.09,66.95-30.79c0,0,16.29-19.58,9.36-27.46c-6.93-7.89-4.61-15.23-8.09-22.75
			c-12.77-27.66-26.39-47.67-46.54-52.62C579.4,499.29,443.83,540.85,444.73,554.69z"/>
		<path class="st5" d="M536.19,618.38c0,0,18.63-12.3,23.45-1.79c7.62,16.62,7.59,16.44,7.59,16.44"/>
		<path class="st4" d="M269.78,573.47c0,0-19.92,2.79-37.17,0c-17.26-2.79-26.81-12.03-33.59-5.87s-1.54,10.17,8.94,13.56
			c10.48,3.39,39.44,15.41,39.13,20.03c-0.31,4.62-13.25-0.92-19.1,4.01c-2.79,2.35-3.69,5.46-3.87,8.08
			c-0.19,2.78,2.02,5.13,4.81,5.1c5.71-0.07,17.5-0.13,37.88,0.07c31.12,0.31,42.48,0.71,45.58-21.98
			C315.5,573.76,269.78,573.47,269.78,573.47z"/>
		<path class="st5" d="M269.78,573.47c0,0-19.92,2.79-37.17,0c-17.26-2.79-26.81-12.03-33.59-5.87s-1.54,10.17,8.94,13.56
			c10.48,3.39,39.44,15.41,39.13,20.03c-0.31,4.62-13.25-0.92-19.1,4.01c-2.79,2.35-3.69,5.46-3.87,8.08
			c-0.19,2.78,2.02,5.13,4.81,5.1c5.71-0.07,17.5-0.13,37.88,0.07c31.12,0.31,42.48,0.71,45.58-21.98
			C315.5,573.76,269.78,573.47,269.78,573.47z"/>
		<path class="st7" d="M268.76,563.42c0,0-2.49,45.28,50.27,31.57l86.41-101.78c0,0,20.03,44.87,39.3,61.48
			c19.27,16.62,130.19,24.09,153.87-50.68c0,0-7.42-11.3-8.01-19.81c0,0,110.03,60.81,117.12,65.77
			c7.09,4.96,45.36-43.23,19.49-58.12c-25.87-14.88-149.96-92.82-163.21-98.1c-13.25-5.28-75.34-16.19-119.26-7.44
			c-4.88,0.97-9.69,2.21-14.39,3.65c-36.25,11.08-67.35,34.76-88.65,66.12L268.76,563.42z"/>
		<path class="st5" d="M268.76,563.42c0,0-2.49,45.28,50.27,31.57l86.41-101.78c0,0,20.03,44.87,39.3,61.48
			c19.27,16.62,130.19,24.09,153.87-50.68c0,0-7.42-11.3-8.01-19.81c0,0,110.03,60.81,117.12,65.77
			c7.09,4.96,45.36-43.23,19.49-58.12c-25.87-14.88-149.96-92.82-163.21-98.1c-13.25-5.28-75.34-16.19-119.26-7.44
			c-4.88,0.97-9.69,2.21-14.39,3.65c-36.25,11.08-67.35,34.76-88.65,66.12L268.76,563.42z"/>
		<path class="st8" d="M420.53,418.38c0,0-8.93,27.04-3.57,40.82c1.93,4.96,15.86-9.27,23.22-17.3c2.72-2.97,7.08-3.73,10.64-1.86
			c11.55,6.05,35.9,19.83,40.74,19.17c8.79-1.2,18.77-59.37,18.77-59.37L420.53,418.38z"/>
		<path class="st5" d="M420.53,418.38c0,0-8.93,27.04-3.57,40.82c1.93,4.96,15.86-9.27,23.22-17.3c2.72-2.97,7.08-3.73,10.64-1.86
			c11.55,6.05,35.9,19.83,40.74,19.17c8.79-1.2,18.77-59.37,18.77-59.37L420.53,418.38z"/>
		<g>
			
				<ellipse transform="matrix(0.0426 -0.9991 0.9991 0.0426 358.4854 550.2612)" class="st9" cx="466.36" cy="88.08" rx="18.69" ry="67.47"/>
			<path class="st10" d="M497.34,92.6c4.82-0.44,7.7-1.12,7.75-1.98c0.07-1.35-6.78-2.84-17.21-3.99"/>
			<path class="st10" d="M452.04,91.93c4.41,0.37,9.23,0.68,14.29,0.89c6.7,0.29,13.02,0.39,18.53,0.33"/>
			<path class="st10" d="M449.86,84.74c-12.89,0.07-21.82,1.01-21.9,2.54c-0.06,1.17,5.09,2.45,13.28,3.52"/>
			<path class="st10" d="M445.87,99.22c6.19,0.81,12.95,1.4,20.04,1.71c8.86,0.38,17.24,0.28,24.68-0.22"/>
			<path class="st10" d="M438.67,77.49c-15.82,1.42-26.51,4.76-26.73,9.1c-0.18,3.53,6.61,7,17.57,9.67"/>
			<path class="st10" d="M521.11,91.31c0.34-6.61-23.82-13.03-53.97-14.34"/>
			<path class="st10" d="M453.59,80.79c-20.2,0.05-35.2,2.56-35.39,6.31c-0.14,2.8,7.99,5.62,20.48,7.62"/>
			<path class="st10" d="M495.97,96.61c10.11-1.05,16.57-2.97,16.7-5.42c0.14-2.8-7.99-5.62-20.48-7.62"/>
			
				<ellipse transform="matrix(0.0426 -0.9991 0.9991 0.0426 358.4854 550.2612)" class="st5" cx="466.36" cy="88.08" rx="18.69" ry="67.47"/>
			<path class="st11" d="M456.37,87.19c-0.28,2.22,3.96,4.49,9.46,5.07c5.5,0.58,10.19-0.75,10.47-2.97
				c0.28-2.22-3.96-4.49-9.46-5.07C461.34,83.64,456.65,84.97,456.37,87.19z"/>
			<path class="st5" d="M456.37,87.19c-0.28,2.22,3.96,4.49,9.46,5.07c5.5,0.58,10.19-0.75,10.47-2.97
				c0.28-2.22-3.96-4.49-9.46-5.07C461.34,83.64,456.65,84.97,456.37,87.19z"/>
			<path class="st11" d="M457.12,90.7c-0.25,1.96,3.49,3.96,8.35,4.47c4.86,0.51,8.99-0.66,9.24-2.62c0.25-1.96-3.49-3.96-8.35-4.47
				C461.5,87.57,457.36,88.74,457.12,90.7z"/>
			<path class="st5" d="M457.12,90.7c-0.25,1.96,3.49,3.96,8.35,4.47c4.86,0.51,8.99-0.66,9.24-2.62c0.25-1.96-3.49-3.96-8.35-4.47
				C461.5,87.57,457.36,88.74,457.12,90.7z"/>
			<path class="st11" d="M467.46,133.68L470,93.06c0,0-3.33-3.52-8.74-0.37l-3.71,40.02L467.46,133.68z"/>
			<path class="st12" d="M467.46,133.68L470,93.06c0,0-3.33-3.52-8.74-0.37l-3.71,40.02L467.46,133.68z"/>
			<path class="st5" d="M467.46,133.68L470,93.06c0,0-3.33-3.52-8.74-0.37l-3.71,40.02L467.46,133.68z"/>
			<ellipse class="st11" cx="460.53" cy="148.2" rx="18.2" ry="15.7"/>
			<ellipse class="st5" cx="460.53" cy="148.2" rx="18.2" ry="15.7"/>
		</g>
		<g>
			<path class="st4" d="M338.04,270.44c0,0-16.03,3.61-13.33,29.85c2.7,26.23,14.79,34.34,22.71,34.34
				C355.33,334.63,368.04,274.7,338.04,270.44z"/>
			<path class="st5" d="M338.04,270.44c0,0-16.03,3.61-13.33,29.85c2.7,26.23,14.79,34.34,22.71,34.34
				C355.33,334.63,368.04,274.7,338.04,270.44z"/>
			<path class="st4" d="M424.79,419.35c0,0,2.37,9.38,16.64,9.73c14.27,0.35,54.99-7.31,68.91-29.23v-16.01L424.79,419.35z"/>
			<path class="st5" d="M424.79,419.35c0,0,2.37,9.38,16.64,9.73c14.27,0.35,54.99-7.31,68.91-29.23v-16.01L424.79,419.35z"/>
			<path class="st4" d="M337.92,222.01c0,0-4.92,48.95,7.16,83c0,0-17.03,44.49,10.99,71.41c28.01,26.91,56.73,48.34,94.28,43.94
				c37.55-4.39,76-37.9,85.33-47.24c9.34-9.34,13.18-18.68,13.18-18.68s18.22,9.78,32.35-11.94c14.12-21.72,21-53.59-4.34-66.26
				c-25.35-12.67-32.59,34.04-32.59,34.04s1.45-67.62-2.88-90.04C537.07,197.81,390.76,140.4,337.92,222.01z"/>
			<path class="st5" d="M337.92,222.01c0,0-4.92,48.95,7.16,83c0,0-17.03,44.49,10.99,71.41c28.01,26.91,56.73,48.34,94.28,43.94
				c37.55-4.39,76-37.9,85.33-47.24c9.34-9.34,13.18-18.68,13.18-18.68s18.22,9.78,32.35-11.94c14.12-21.72,21-53.59-4.34-66.26
				c-25.35-12.67-32.59,34.04-32.59,34.04s1.45-67.62-2.88-90.04C537.07,197.81,390.76,140.4,337.92,222.01z"/>
			<path class="st13" d="M563.89,210.35c0,0-9.71-63.33-107.73-66.97c-98.02-3.64-131.99,82.98-125.68,82.98
				c1.66,0,3.82-1.73,7.44-4.36v0c70-49.22,202.36-13.14,203.48-1.77c1.41,14.36,3.16,46.39,3.11,68.19
				c-0.03,12.69-0.23,21.85-0.23,21.85s0.95-6.11,3.36-13.3c4.25-12.71,13.04-28.83,29.23-20.73c1.84,0.92,3.49,1.95,5,3.07
				c2.58-3.74,4.25-8.23,4.34-13.63C586.69,238.5,578.93,211.32,563.89,210.35z"/>
			<path class="st5" d="M563.89,210.35c0,0-9.71-63.33-107.73-66.97c-98.02-3.64-131.99,82.98-125.68,82.98
				c1.66,0,3.82-1.73,7.44-4.36v0c70-49.22,202.36-13.14,203.48-1.77c1.41,14.36,3.16,46.39,3.11,68.19
				c-0.03,12.69-0.23,21.85-0.23,21.85s0.95-6.11,3.36-13.3c4.25-12.71,13.04-28.83,29.23-20.73c1.84,0.92,3.49,1.95,5,3.07
				c2.58-3.74,4.25-8.23,4.34-13.63C586.69,238.5,578.93,211.32,563.89,210.35z"/>
			<path class="st5" d="M563.99,313.96c1.22-1.61,3.13-2.68,5.15-2.71c2.13-0.04,4.09,3.4,2.53,8.73c-2.81,9.59-6.7,10.57-9.51,7.76
				C559.7,325.27,560.3,318.82,563.99,313.96z"/>
			<path class="st5" d="M577.68,300.29c0,0-7.69,2.02-13.7,13.67"/>
			<path class="st14" d="M391.15,374.09c0,0,39.02-11.45,65.32-19.17c26.3-7.72,43.12-11.92,41.77,2.3
				c-1.36,14.22-19.73,42.64-45.68,48.41C426.61,411.41,401.15,389.95,391.15,374.09z"/>
			<path class="st5" d="M391.15,374.09c0,0,39.02-11.45,65.32-19.17c26.3-7.72,43.12-11.92,41.77,2.3
				c-1.36,14.22-19.73,42.64-45.68,48.41C426.61,411.41,401.15,389.95,391.15,374.09z"/>
			<path class="st5" d="M388.79,355.99c0,0-10.66-5.47-11.42,5.41c-0.75,10.88,10.22,13.74,13.78,12.69"/>
			<path class="st15" d="M423.36,376.27c-14.99,7.74-13.33,17.74-13.33,17.74c11.92,8.88,27.14,15.04,42.53,11.62
				c13.93-3.1,25.67-12.73,33.78-23.18C474.27,355.04,438.35,368.53,423.36,376.27z"/>
			<path class="st5" d="M423.36,376.27c-14.99,7.74-13.33,17.74-13.33,17.74c11.92,8.88,27.14,15.04,42.53,11.62
				c13.93-3.1,25.67-12.73,33.78-23.18C474.27,355.04,438.35,368.53,423.36,376.27z"/>
			<path class="st8" d="M425.62,264c0,0,2.83-24.91,22.53-36.07c25.91-14.69,54.57,1.28,63.26,19.47
				c8.7,18.19,17.17,81.72-40.72,81.72C413.76,329.11,425.62,264,425.62,264z"/>
			<path class="st8" d="M406.81,322.62c4.88-4.44,8.49-10.08,10.98-16.19c5.59-13.71,12.44-40.74-6.33-64.93
				c-15.88-20.46-48.61-17.41-61.67,4.96c-3.57,6.11-6.19,13.99-6.78,24.11c-2.37,40.1,16.09,59.47,34.34,60.26
				C391.52,331.43,399.25,329.49,406.81,322.62z"/>
			<path class="st5" d="M406.81,322.62c4.88-4.44,8.49-10.08,10.98-16.19c5.59-13.71,12.44-40.74-6.33-64.93
				c-15.88-20.46-48.61-17.41-61.67,4.96c-3.57,6.11-6.19,13.99-6.78,24.11c-2.37,40.1,16.09,59.47,34.34,60.26
				C391.52,331.43,399.25,329.49,406.81,322.62z"/>
			<path class="st5" d="M425.62,264c0,0,2.83-24.91,22.53-36.07c25.91-14.69,54.57,1.28,63.26,19.47
				c8.7,18.19,17.17,81.72-40.72,81.72C413.76,329.11,425.62,264,425.62,264z"/>
			<path d="M414.99,285.85c0,8.51-3.17,15.41-7.07,15.41c-3.9,0-7.07-6.9-7.07-15.41c0-8.51,3.17-15.41,7.07-15.41
				C411.82,270.44,414.99,277.34,414.99,285.85z"/>
			<path class="st8" d="M411.76,282.01c0,2.85-1.72,5.16-3.84,5.16c-2.12,0-3.84-2.31-3.84-5.16c0-2.85,1.72-5.16,3.84-5.16
				C410.04,276.85,411.76,279.16,411.76,282.01z"/>
			<ellipse cx="464.11" cy="282.76" rx="8.34" ry="15.41"/>
			<path class="st8" d="M468.64,278.92c0,2.85-2.03,5.16-4.53,5.16c-2.5,0-4.53-2.31-4.53-5.16c0-2.85,2.03-5.16,4.53-5.16
				C466.61,273.77,468.64,276.08,468.64,278.92z"/>
			<path class="st5" d="M478.68,212.67c0,0,2.91-10.3,16.11-5.28c13.21,5.02,26.41,31.69,26.41,31.69"/>
			<path class="st5" d="M387.03,212.67c0,0-9.51-12.41-24.56,1.32c-13.66,12.46-14.53,19.28-15.05,22.98"/>
			<path class="st4" d="M427.49,321.96c0,0-10.14-13.42-18.61-3.06c-8.47,10.35,0.75,19.2,7.34,19.2c6.21,0,9.28-2.9,12.24-6.21"/>
			<path class="st5" d="M427.49,321.96c0,0-10.14-13.42-18.61-3.06c-8.47,10.35,0.75,19.2,7.34,19.2c6.21,0,9.28-2.9,12.24-6.21"/>
			<path class="st5" d="M566.46,172.79c0,0,2.06,16.84-2.57,37.56c0,0,12.92-16.05,29.96-15.27"/>
		</g>
		<path class="st4" d="M720.93,496.7c0,0,14.9,6.14,33.75,0c18.85-6.14,35.5-16.22,39.89-16.22c4.38,0,6.55,3.92,4.47,8.49
			c0,0,7.27-5.61,13.5-6.44s10.18,4.15,3.12,10.18c0,0,7.27-2.49,6.65,4.78c-0.62,7.27-5.19,8.72-5.19,8.72s9.37-2.91,10.8,2.91
			c1.85,7.55-20.81,23.98-31.4,28.54c-10.59,4.57-26.54,29.81-65.79,23.38c-39.25-6.44-42.37-19.52-36.97-40.71
			C699.15,499.15,720.93,496.7,720.93,496.7z"/>
		<path class="st5" d="M720.93,496.7c0,0,14.9,6.14,33.75,0c18.85-6.14,35.5-16.22,39.89-16.22c4.38,0,6.55,3.92,4.47,8.49
			c0,0,7.27-5.61,13.5-6.44s10.18,4.15,3.12,10.18c0,0,7.27-2.49,6.65,4.78c-0.62,7.27-5.19,8.72-5.19,8.72s9.37-2.91,10.8,2.91
			c1.85,7.55-20.81,23.98-31.4,28.54c-10.59,4.57-26.54,29.81-65.79,23.38c-39.25-6.44-42.37-19.52-36.97-40.71
			C699.15,499.15,720.93,496.7,720.93,496.7z"/>
		<path class="st5" d="M730.13,511.42c0,0,16.46,0.93,22.64-3.73c6.19-4.67,10.15-9.45,11.67-9.45c1.52,0,11.55,7,2.92,18.44
			c-8.64,11.44-20.66,9.45-23.23,14.59c-2.57,5.14-8.75,9.57-15.06,9.57"/>
		<path class="st5" d="M799.04,488.98c0,0-6.4,11.21-28.23,19.33"/>
		<path class="st5" d="M815.66,492.71c0,0-20.94,21.32-39.38,30.18"/>
		<path class="st5" d="M817.11,506.21c0,0-14.2,15.48-32.18,22.66"/>
		<path class="st5" d="M590.59,484.21c0,0-20.46-11.9-38.88-18.22"/>
		<path class="st5" d="M394.14,465.98c0,0,7.43,19.09,11.29,27.23"/>
		<path class="st16" d="M763.93,681.52c0,0,10.14-7.8,30.68,9.25c20.54,17.05,37.21,65.12,29.84,96.9
			c-7.36,31.78-33.07,45.01-53.78,29.59C757.84,807.7,700.96,737.71,763.93,681.52z"/>
		<path class="st5" d="M763.93,681.52c0,0,10.14-7.8,30.68,9.25c20.54,17.05,37.21,65.12,29.84,96.9
			c-7.36,31.78-33.07,45.01-53.78,29.59C757.84,807.7,700.96,737.71,763.93,681.52z"/>
		<path class="st16" d="M674.03,717.81c0,0,11.53-5.55,28.12,15.37c16.59,20.92,23.01,71.38,9.26,100.97
			c-13.75,29.59-41.63,37.24-58.72,17.88C642.1,840.04,600.85,759.84,674.03,717.81z"/>
		<path class="st5" d="M674.03,717.81c0,0,11.53-5.55,28.12,15.37c16.59,20.92,23.01,71.38,9.26,100.97
			c-13.75,29.59-41.63,37.24-58.72,17.88C642.1,840.04,600.85,759.84,674.03,717.81z"/>
		<path class="st8" d="M697.02,714.15c0,0,10.35,4.56,25.62-8.45c15.27-13.01,16.97-27.15,17.53-31.96
			c0.57-4.81-0.89-11.02-0.89-11.02s27.44,17.24,33.69,29.97c7.64,15.55-5.82,49.21-37.98,46.1L697.02,714.15z"/>
		<path class="st5" d="M697.02,714.15c0,0,10.35,4.56,25.62-8.45c15.27-13.01,16.97-27.15,17.53-31.96
			c0.57-4.81-0.89-11.02-0.89-11.02s27.44,17.24,33.69,29.97c7.64,15.55-5.82,49.21-37.98,46.1L697.02,714.15z"/>
		<path class="st17" d="M735,738.78c0,0-2.46-5.86,13.28-19.42c15.53-13.37,26.51-12.52,26.51-12.52s11.67,32.14-4.59,44.79
			C759.49,759.96,739.73,752.68,735,738.78z"/>
		<path class="st5" d="M735,738.78c0,0-2.46-5.86,13.28-19.42c15.53-13.37,26.51-12.52,26.51-12.52s11.67,32.14-4.59,44.79
			C759.49,759.96,739.73,752.68,735,738.78z"/>
		<path class="st8" d="M597.82,744.43c0,0,32.69,4.36,43.7-18.28c11.01-22.64,8.98-28.01,8.98-28.01s21.2,20.05,26.71,28.21
			c5.51,8.16-5.71,55.47-45.88,44.86L597.82,744.43z"/>
		<path class="st5" d="M597.82,744.43c0,0,32.69,4.36,43.7-18.28c11.01-22.64,8.98-28.01,8.98-28.01s21.2,20.05,26.71,28.21
			c5.51,8.16-5.71,55.47-45.88,44.86L597.82,744.43z"/>
		<path class="st17" d="M635.96,772.88c0,0,2.21-9.53,13.88-17.38c12.16-8.18,25.97-8.87,25.97-8.87s8.42,31.35-9.85,40.88
			C653.93,793.8,638.14,787.4,635.96,772.88z"/>
		<path class="st5" d="M635.96,772.88c0,0,2.21-9.53,13.88-17.38c12.16-8.18,25.97-8.87,25.97-8.87s8.42,31.35-9.85,40.88
			C653.93,793.8,638.14,787.4,635.96,772.88z"/>
	</g>
</g>
<g id="Layer_4">
</g>
<g id="Layer_3">
</g>
</svg>
